<svg width="292" height="290" viewBox="0 0 292 290" fill="none" xmlns="http://www.w3.org/2000/svg">
<path d="M195.229 290C236.8 290 270.5 289.195 270.5 288.202C270.5 287.21 236.8 286.405 195.229 286.405C153.658 286.405 119.958 287.21 119.958 288.202C119.958 289.195 153.658 290 195.229 290Z" fill="#606073"/>
<path d="M50.133 232.998C48.0923 232.007 26.3468 220.217 19.5658 186.588C14.3956 160.95 35.9946 153.306 38.5816 144.577C41.1686 135.848 13.93 112.448 3.12764 89.8371C-7.67281 67.2262 10.2766 39.7777 44.9778 22.3095C79.6789 4.84294 117.421 -6.60253 139.807 4.20984C154.024 11.0761 179.008 26.0053 207.536 24.9894C236.065 23.9734 262.365 38.5463 281.15 71.3944C299.935 104.241 291.011 138.16 279.27 148.233C267.529 158.308 265.222 170.608 268.958 188.996C268.958 188.996 269.273 190.342 269.426 192.621C270.918 215.093 246.544 232.334 221.046 232.213L50.1311 233L50.133 232.998Z" fill="#2883D9"/>
<path d="M59.7364 233.244C59.7364 233.244 68.4168 92.3836 70.4856 90.8167C72.5543 89.2482 87.233 79.8406 92.6315 81.4075C98.03 82.976 108.092 87.8853 112.746 90.9264C113.182 91.2123 113.58 100.886 113.933 115.073C116.231 116.096 117.89 116.844 117.89 116.844C117.89 116.844 117.165 79.0355 117.89 76.4225C118.614 73.8094 146.365 65.9688 147.93 65.9688C149.495 65.9688 165.807 75.3779 167.893 79.5594C169.979 83.7409 176.086 233.246 176.086 233.246H59.7364V233.244Z" fill="white"/>
<path d="M167.893 79.5569C169.979 83.7384 176.086 233.243 176.086 233.243H152.054C151.594 201.322 147.928 65.9678 147.928 65.9678C149.493 65.9678 165.806 75.3769 167.892 79.5584L167.893 79.5569Z" fill="#D5D5E6"/>
<path d="M90.1172 233.243V81.3089C91.0792 81.1853 91.9332 81.2038 92.6315 81.4063C98.03 82.9747 108.092 87.884 112.746 90.9251C113.182 91.211 113.58 100.884 113.933 115.072C116.231 116.094 117.89 116.842 117.89 116.842L119.606 233.243H90.1172Z" fill="#D5D5E6"/>
<path d="M160.088 121.366L163.523 136.403L157.904 148.633L162.009 161.318C162.009 161.318 160.4 174.075 160.088 174.701C159.777 175.327 159.777 185.761 159.777 185.761L153.057 192.854C153.057 192.854 156.466 199.948 155.727 198.277C154.99 196.609 154.366 193.688 154.366 193.688C154.366 193.688 160.913 189.516 162.011 187.637C163.108 185.759 162.011 173.867 162.011 173.867C162.011 173.867 166.438 178.039 167.27 179.499C168.103 180.96 169.143 190.349 169.143 190.349V176.787C169.143 174.075 164.565 168.859 164.565 168.859C164.565 168.859 165.814 161.342 165.814 159.051C165.814 156.759 162.011 148.062 162.011 148.062C162.011 148.062 169.353 137.961 169.145 137.136C168.937 136.311 164.343 121.082 164.343 121.082L160.091 121.363L160.088 121.366Z" fill="#ABABCD"/>
<path d="M167.674 123.767C164.941 121.862 161.226 122.225 160.087 121.364C158.947 120.503 161.452 114.74 160.087 113.513C158.721 112.286 154.17 112.428 152.516 112.448C150.862 112.468 149.137 110.272 149.137 110.272C149.137 110.272 146.026 109.81 144.887 111.119C143.748 112.428 142.368 102.745 141.685 102.133C141.002 101.521 132.965 101.609 132.965 101.609C132.965 101.609 135.169 86.9819 133.575 85.6112C131.981 84.2421 128.691 78.5308 128.691 78.5308L126.519 72.24C135.036 69.2252 146.92 65.9678 147.928 65.9678C149.493 65.9678 165.806 75.3769 167.892 79.5584C168.685 81.15 170.062 103.796 171.463 131.237C171.463 131.237 170.406 125.672 167.673 123.769L167.674 123.767Z" fill="#544E4E"/>
<path d="M171.354 129.079C169.991 102.617 168.667 81.1073 167.893 79.5574C165.807 75.3759 149.493 65.9668 147.93 65.9668C147.216 65.9668 141.05 67.6001 134.486 69.6229C134.481 69.6646 134.483 69.7079 134.494 69.7558C134.688 70.5825 134.23 71.4061 134.024 72.1865C133.834 72.902 133.829 73.636 134.118 74.3252C134.668 75.6448 135.983 76.4777 137.156 77.187C137.828 77.5934 138.513 77.9797 139.148 78.4433C139.892 78.9872 140.574 79.6192 141.183 80.31C141.469 80.6345 141.807 80.9853 141.819 81.4442C141.832 81.9294 141.628 82.4455 141.512 82.9107C141.267 83.8981 141.036 84.8902 140.823 85.8869C140.332 88.1708 139.925 90.4717 139.601 92.7849C139.57 93.0044 139.652 93.1913 139.874 93.2655C141.343 93.7584 142.756 94.3997 144.095 95.1832C144.697 95.5371 145.204 95.8878 145.211 96.6527C145.215 97.4053 144.959 98.1625 144.861 98.9057C144.753 99.7108 144.71 100.522 144.737 101.335C144.762 102.047 144.861 102.73 145.454 103.195C145.955 103.589 146.533 103.834 146.997 104.283C147.414 104.687 147.753 105.155 148.038 105.66C148.738 106.896 149.663 109.958 149.829 109.945L149.582 110.71C151.688 111.286 153.854 111.62 156.032 111.707C158.391 112.121 160.734 112.612 163.04 113.272C164.15 113.589 164.36 113.933 165.443 114.335C164.754 116.63 164.859 118.911 163.977 121.139C163.902 121.329 164.061 121.576 164.25 121.62C165.104 121.814 165.965 121.992 166.819 122.193C168.426 123.913 169.792 125.851 170.871 127.94C171.035 128.318 171.197 128.699 171.36 129.077L171.354 129.079Z" fill="#D5D5E6"/>
<path d="M152.425 74.2906C152.425 74.2906 152.183 80.1069 152.505 80.4299C152.828 80.7529 154.6 81.3184 154.922 80.9955C155.245 80.6725 155.487 75.9054 155.245 75.4217C155.003 74.9365 152.585 73.4824 152.424 74.2906H152.425Z" fill="#ABABCD"/>
<path d="M158.792 77.2789C158.792 77.2789 158.47 82.4494 158.792 82.7724C159.114 83.0953 160.968 83.9839 161.291 83.6609C161.613 83.3379 161.613 78.8134 161.371 78.3297C161.129 77.8445 158.954 76.4723 158.792 77.2789Z" fill="#ABABCD"/>
<path d="M163.95 80.1078C163.95 80.1078 163.708 84.7127 164.03 85.0356C164.352 85.3586 165.561 86.0045 165.883 85.6816C166.205 85.3586 166.205 81.4815 165.963 80.9963C165.721 80.5111 164.11 79.2996 163.948 80.1078H163.95Z" fill="#ABABCD"/>
<path d="M152.425 85.7618C152.425 85.7618 152.103 91.8208 152.425 92.1437C152.747 92.4667 154.52 92.8715 154.842 92.547C155.164 92.2241 155.407 86.8914 155.164 86.4077C154.922 85.9225 152.585 84.9536 152.425 85.7618Z" fill="#ABABCD"/>
<path d="M158.228 87.7009C158.228 87.7009 157.986 93.4369 158.308 93.7599C158.63 94.0828 160.725 94.7288 161.047 94.4058C161.369 94.0828 161.369 88.9927 161.127 88.5091C160.885 88.0238 158.388 86.8927 158.226 87.7009H158.228Z" fill="#ABABCD"/>
<path d="M163.386 89.8008C163.386 89.8008 163.305 94.809 163.628 95.132C163.95 95.4549 165.481 96.0205 165.804 95.6975C166.126 95.3746 165.966 91.0123 165.724 90.5271C165.482 90.0419 163.547 88.9926 163.387 89.7993L163.386 89.8008Z" fill="#ABABCD"/>
<path d="M148.782 66.2227C148.377 66.0574 148.083 65.9678 147.93 65.9678C147.216 65.9678 141.05 67.6011 134.486 69.6239C134.481 69.6656 134.483 69.7089 134.494 69.7568C134.688 70.5835 134.23 71.4071 134.024 72.1875C133.834 72.9029 133.829 73.6369 134.118 74.3261C134.668 75.6458 135.983 76.4787 137.156 77.188C137.828 77.5944 138.513 77.9807 139.148 78.4443C139.892 78.9882 140.574 79.6202 141.183 80.311C141.469 80.6355 141.807 80.9862 141.819 81.4452C141.832 81.9304 141.628 82.4465 141.512 82.9116C141.267 83.8991 141.036 84.8911 140.823 85.8878C140.332 88.1717 139.925 90.4726 139.601 92.7859C139.57 93.0053 139.652 93.1923 139.874 93.2665C141.343 93.7594 142.757 94.4007 144.095 95.1842C144.697 95.538 145.204 95.8888 145.211 96.6537C145.215 97.4063 144.959 98.1635 144.861 98.9067C144.753 99.7118 144.71 100.523 144.737 101.336C144.762 102.048 144.861 102.731 145.454 103.196C145.955 103.59 146.533 103.835 146.997 104.284C147.414 104.688 147.753 105.156 148.038 105.661C148.274 106.078 148.536 106.703 148.785 107.347V66.2227H148.782Z" fill="white"/>
<path d="M142.479 104.654C142.479 104.654 135.007 114.485 133.967 116.01C132.926 117.534 138.129 132.63 138.129 132.63C138.129 132.63 131.676 152.636 131.26 153.655C130.843 154.673 143.288 134.77 142.477 132.098C141.667 129.426 136.441 117.822 136.868 116.843C137.295 115.865 145.829 111.506 145.829 111.506L142.477 104.654H142.479Z" fill="#ABABCD"/>
<path d="M130.717 77.3249C130.993 78.1531 136.663 82.3053 136.367 83.679C136.071 85.0527 134.713 100.393 134.438 100.944C134.162 101.497 141.627 100.731 144.223 100.944C146.819 101.158 165.168 113.238 165.994 113.928C166.82 114.617 164.479 120.642 164.34 121.084C164.201 121.526 169.163 122.833 169.714 123.768C169.97 124.201 170.669 126.54 171.346 128.926C171.386 129.692 171.425 130.462 171.465 131.236C171.465 131.236 169.541 126.804 166.808 124.901C164.075 122.995 159.748 123.803 158.608 122.943C157.469 122.082 159.974 116.318 158.608 115.091C157.242 113.864 154.172 113.595 152.518 113.615C150.864 113.636 149.139 111.44 149.139 111.44C149.139 111.44 145.625 112.617 144.486 113.926C143.347 115.235 140.614 103.217 139.931 102.604C139.248 101.992 131.731 102.604 131.731 102.604C131.731 102.604 133.325 87.1512 131.731 85.7821C130.137 84.413 126.922 79.0308 126.922 79.0308L126.519 72.2409C127.827 71.7789 129.212 71.3107 130.626 70.8486C130.581 73.6317 130.563 76.8659 130.717 77.3264V77.3249Z" fill="#ABABCD"/>
<path d="M140.003 134.222C140.003 134.222 143.541 140.443 144.166 141.194C144.79 141.945 138.54 137.138 138.54 137.138L140.002 134.222H140.003Z" fill="#ABABCD"/>
<path d="M80.9327 89.5037C80.9774 89.343 82.6793 88.6754 82.7024 88.8176C82.872 89.8544 82.8797 90.9269 82.9352 91.9746C82.9444 92.1399 81.9301 92.3717 81.4198 92.4706C81.204 92.5123 81.0668 92.5478 81.0653 92.3099C81.0576 91.5589 80.8896 89.6644 80.9327 89.5021V89.5037Z" fill="#D5D5E6"/>
<path d="M77.3779 91.3008C77.3902 90.9639 77.3686 90.9562 77.4658 90.8264C77.4658 90.8264 78.0855 90.5575 78.3537 90.4849C78.6713 90.3984 78.6682 91.3719 78.6759 91.7937C78.6836 92.2882 78.7437 92.639 78.6851 93.1304C78.6697 93.2602 78.6081 93.3545 78.4816 93.3977C78.2227 93.4858 77.8234 93.6218 77.566 93.713C77.3918 93.7748 77.2931 93.713 77.3008 93.5337C77.327 92.7889 77.3532 92.0441 77.3794 91.2993L77.3779 91.3008Z" fill="#D5D5E6"/>
<path d="M74.4288 92.2744C74.4412 91.9376 74.4196 91.9298 74.5167 91.8C74.5167 91.8 75.1364 91.5312 75.4047 91.4585C75.7222 91.372 75.7191 92.3455 75.7268 92.7674C75.7345 93.2619 75.7947 93.6126 75.7361 94.104C75.7207 94.2338 75.659 94.3281 75.5326 94.3714C75.2736 94.4595 74.8744 94.5954 74.6169 94.6866C74.4427 94.7484 74.3441 94.6866 74.3518 94.5073C74.378 93.7625 74.4042 93.0177 74.4304 92.2729L74.4288 92.2744Z" fill="#D5D5E6"/>
<path d="M164.511 161.317C164.667 160.66 160.608 149.769 160.37 148.632C160.133 147.495 166.697 138.189 167.041 137.137C167.384 136.084 165.296 124.254 165.296 124.254C166.654 128.763 168.995 136.554 169.143 137.137C169.351 137.962 162.009 148.063 162.009 148.063C162.009 148.063 165.812 156.759 165.812 159.052C165.812 161.345 164.563 168.86 164.563 168.86C164.563 168.86 169.142 174.075 169.142 176.788V190.35C169.142 190.35 168.101 180.961 167.269 179.5L162.638 170.425C162.638 170.425 164.355 161.975 164.511 161.317Z" fill="#8989B9"/>
<path d="M200.882 90.4805C201.351 91.0893 203.848 96.8794 202.911 97.6613C201.973 98.4433 196.199 99.8525 196.199 99.8525C196.199 99.8525 192.92 93.7549 193.389 92.1092C193.857 90.4635 200.882 90.4805 200.882 90.4805Z" fill="#ABABCD"/>
<path d="M200.89 90.4912C201.365 91.131 203.739 96.6414 202.963 97.6025C201.841 97.6922 198.989 97.8822 198.565 97.5253C198.033 97.0787 196.487 93.6219 196.321 92.5603C196.159 91.5389 200.56 90.5638 200.891 90.4912H200.89Z" fill="#D5D5E6"/>
<path d="M138.807 50.0332C138.807 50.0332 136.746 50.6266 136.401 50.0332C136.055 49.4399 134.905 44.7129 134.905 44.7129C134.905 44.7129 130.208 40.5824 130.12 39.7047C130.032 38.827 139.277 37.3327 140.772 37.7932C142.268 38.2552 138.807 50.0332 138.807 50.0332Z" fill="#ABABCD"/>
<path d="M146.357 36.4748C146.357 36.4748 148.935 46.4819 147.578 48.4182C146.222 50.3544 138.808 50.0314 138.808 50.0314C138.808 50.0314 140.732 41.6391 138.808 40.6702C136.885 39.7013 130.444 41.3161 130.122 39.7013C129.8 38.088 130.444 34.86 130.122 33.2452C129.8 31.6319 146.357 36.4732 146.357 36.4732V36.4748Z" fill="#D5D5E6"/>
<path d="M208.457 57.8384C208.571 58.0439 210.168 61.3724 209.857 62.3088C209.546 63.2437 203.245 64.1029 202.778 62.621C202.311 61.1391 204.033 57.3192 204.033 57.3192C204.033 57.3192 207.919 56.8741 208.456 57.8399L208.457 57.8384Z" fill="#ABABCD"/>
<path d="M202.78 62.6196C202.313 61.1377 204.034 57.3178 204.034 57.3178C204.034 57.3178 207.845 56.882 208.44 57.8123C208.331 57.9529 208.209 58.0981 208.069 58.2542C208.069 58.2542 204.95 61.8408 204.095 62.4651C203.865 62.6335 203.506 62.822 203.103 63.0075C202.943 62.9008 202.827 62.7741 202.78 62.6211V62.6196Z" fill="#D5D5E6"/>
<path d="M204.475 84.8164C204.475 84.8164 206.749 87.1652 206.749 88.063C206.749 88.9608 204.475 91.1026 204.475 91.1026C204.475 91.1026 202.339 88.8928 202.064 88.5467C201.788 88.2021 204.475 84.818 204.475 84.818V84.8164Z" fill="#ABABCD"/>
<path d="M124.141 48.3516C124.141 48.3516 125.312 55.5834 124.899 57.838C124.486 60.0925 117.595 59.6088 116.011 59.4018C114.426 59.1947 118.422 52.6335 118.491 50.7684C118.56 48.9032 124.141 48.3516 124.141 48.3516Z" fill="#ABABCD"/>
<path d="M124.141 48.3512C124.141 48.3512 125.312 55.583 124.899 57.8376C124.814 58.3011 124.454 58.6457 123.925 58.9038C122.181 58.2501 119.844 57.3369 119.801 57.1221C119.732 56.7775 120.834 54.5662 121.11 53.9713C121.32 53.517 120.33 50.6938 119.847 49.3741C121.519 48.6092 124.142 48.3496 124.142 48.3496L124.141 48.3512Z" fill="#D5D5E6"/>
<path d="M50.9326 103.379C51.8868 101.682 53.1432 100.246 54.6153 98.9886C55.3306 98.3782 56.0844 97.7663 56.6348 96.9952C57.2375 96.1499 57.5011 95.1687 57.5566 94.1395C57.6136 93.0887 57.5011 92.0379 57.4487 90.9903C57.3978 89.9688 57.4348 88.9567 57.5844 87.9445C57.8711 86.0114 58.5725 84.1154 59.6747 82.499C61.8329 79.3358 65.6513 77.3115 69.5129 77.7643C69.9846 77.8199 70.4501 77.9065 70.9095 78.0316C71.3936 78.1645 71.1885 78.9186 70.7029 78.7857C67.0957 77.7967 63.1925 79.3467 60.8679 82.1946C59.6685 83.6641 58.8839 85.4536 58.4892 87.3032C58.295 88.2149 58.1994 89.1452 58.201 90.0785C58.201 91.1247 58.3228 92.1662 58.3459 93.2124C58.3675 94.223 58.2996 95.2706 57.9312 96.221C57.5782 97.1312 56.9785 97.8899 56.2771 98.559C55.5819 99.2219 54.8142 99.8029 54.1251 100.472C53.4746 101.104 52.8857 101.799 52.3693 102.546C50.2358 105.63 49.2816 109.444 49.4573 113.174C49.65 117.292 51.153 121.261 53.3281 124.727C53.5979 125.156 53.8785 125.578 54.1683 125.994C54.4566 126.408 53.7798 126.799 53.4946 126.388C51.079 122.922 49.334 118.941 48.8114 114.724C48.3304 110.844 49.0072 106.798 50.9295 103.377L50.9326 103.379Z" fill="white"/>
<path d="M43.8153 102.682C44.2978 101.146 44.9946 99.6595 45.9627 98.3677C46.4436 97.7264 46.9801 97.1346 47.5844 96.6061C48.1825 96.0822 48.8253 95.6109 49.4157 95.0778C50.0015 94.5493 50.5149 93.9637 50.8571 93.2482C51.1931 92.5451 51.355 91.7555 51.4413 90.9844C51.6155 89.4252 51.5677 87.8568 51.8113 86.3038C52.2537 83.479 53.3652 80.7346 55.0347 78.4152C56.6903 76.1158 58.8932 74.2275 61.5169 73.1334C61.8406 72.9975 62.1705 72.8754 62.505 72.7657C62.9829 72.6081 63.1879 73.3621 62.7131 73.5198C60.0956 74.3836 57.8465 76.0942 56.1384 78.2436C54.4134 80.4117 53.2496 83.0293 52.7023 85.7428C52.4063 87.2093 52.3894 88.685 52.2923 90.1716C52.1859 91.7895 51.893 93.3966 50.8617 94.6977C49.889 95.9246 48.4939 96.7189 47.4179 97.8469C46.3511 98.9657 45.5403 100.326 44.9699 101.76C43.655 105.066 43.5594 108.665 43.6118 112.178C43.618 112.634 43.6272 113.089 43.6365 113.547C43.6457 114.051 42.8672 114.051 42.8564 113.547C42.784 109.917 42.7146 106.188 43.8168 102.685L43.8153 102.682Z" fill="white"/>
<path d="M42.5034 92.8608C43.288 92.0913 44.1528 91.3728 44.7879 90.4657C45.4508 89.52 45.7684 88.4089 45.9087 87.2716C46.0566 86.0678 46.0536 84.8502 46.1229 83.6402C46.1969 82.353 46.3233 81.0612 46.6178 79.8033C47.1743 77.4252 48.4214 75.0995 50.5672 73.8185C50.9988 73.5604 51.3919 74.2357 50.9603 74.4938C49.1552 75.5724 48.0529 77.4931 47.5042 79.4788C46.8444 81.8694 46.9584 84.3279 46.7411 86.7725C46.6409 87.9021 46.4359 89.0255 45.9379 90.0531C45.4539 91.0529 44.6754 91.8641 43.8815 92.6229C43.0984 93.3723 42.3122 94.111 41.6648 94.9856C41.0343 95.837 40.5024 96.7673 40.0908 97.7439C39.1798 99.9104 38.8283 102.336 39.1551 104.668C39.1844 104.877 39.1043 105.089 38.8823 105.149C38.7004 105.2 38.4321 105.085 38.4028 104.875C37.7831 100.471 39.3309 95.9668 42.5018 92.8608H42.5034Z" fill="white"/>
<path d="M177.064 72.5992C180.272 73.3502 183.345 74.6668 186.122 76.4408C188.898 78.2163 191.394 80.4446 193.45 83.0236C194.608 84.4762 195.632 86.0323 196.493 87.6811C196.726 88.1261 196.052 88.5217 195.82 88.0751C194.326 85.2148 192.345 82.6327 189.993 80.4291C187.642 78.2271 184.932 76.4176 182 75.0918C180.349 74.3454 178.622 73.7659 176.859 73.3518C176.37 73.2374 176.577 72.4834 177.067 72.5977L177.064 72.5992Z" fill="white"/>
<path d="M169.524 57.9123C172.541 57.7084 175.582 58.0236 178.51 58.7715C181.436 59.5194 184.253 60.6985 186.866 62.2128C189.456 63.7133 191.844 65.5583 193.99 67.6444C196.091 69.6873 197.964 71.9635 199.617 74.3849C201.278 76.8218 202.715 79.4117 203.941 82.0942C204.092 82.4249 204.24 82.7572 204.385 83.0894C204.469 83.2826 204.442 83.5082 204.244 83.6241C204.079 83.7214 203.796 83.6781 203.711 83.4834C202.55 80.8148 201.192 78.2311 199.613 75.7865C198.05 73.3666 196.27 71.0873 194.263 69.0182C192.233 66.9259 189.976 65.0561 187.506 63.5062C184.976 61.9192 182.243 60.6614 179.379 59.8176C176.544 58.9832 173.595 58.5598 170.64 58.6371C170.267 58.6463 169.895 58.6649 169.524 58.6896C169.023 58.7236 169.025 57.9417 169.524 57.9077V57.9123Z" fill="white"/>
<path d="M188.414 47.8342C188.476 47.6085 188.684 47.5313 188.893 47.5606C192.826 48.1077 196.825 49.3918 199.678 52.2876C200.412 53.0324 201.052 53.8731 201.559 54.7879C201.802 55.2283 201.13 55.6223 200.885 55.1819C199.051 51.8766 195.61 49.9295 192.061 48.9792C190.953 48.6825 189.823 48.4708 188.685 48.3132C188.477 48.2838 188.363 48.0165 188.413 47.8326L188.414 47.8342Z" fill="white"/>
<path d="M171.369 89.8415C173.524 90.9031 175.126 92.8826 175.921 95.1325C176.316 96.2497 176.507 97.4535 176.458 98.6387C176.433 99.2321 176.348 99.8255 176.202 100.402C176.02 101.117 175.727 101.797 175.499 102.497C175.282 103.159 175.129 103.835 175.198 104.535C175.249 105.048 175.427 105.548 175.667 106C176.199 106.999 177.004 107.818 177.776 108.63C178.584 109.483 179.413 110.352 179.994 111.384C180.699 112.637 180.985 114.099 180.928 115.529C180.81 118.509 179.268 121.144 177.403 123.377C177.17 123.655 176.933 123.929 176.691 124.197C176.355 124.571 175.804 124.018 176.139 123.644C177.996 121.577 179.709 119.149 180.082 116.321C180.261 114.972 180.141 113.534 179.576 112.283C179.095 111.219 178.319 110.344 177.526 109.5C176.035 107.913 174.19 106.149 174.418 103.764C174.554 102.346 175.297 101.088 175.558 99.6972C175.763 98.6016 175.716 97.4566 175.468 96.3718C174.967 94.1806 173.645 92.1501 171.736 90.9386C171.489 90.7826 171.235 90.642 170.973 90.5122C170.523 90.2896 170.918 89.6159 171.366 89.8369L171.369 89.8415Z" fill="white"/>
<path d="M175.374 88.0362C177.394 89.2415 179.263 90.8377 180.409 92.9254C181.582 95.0625 181.926 97.6632 180.982 99.9502C180.543 101.015 179.857 102.058 179.714 103.222C179.573 104.354 180.184 105.24 180.942 106.009C181.708 106.786 182.502 107.499 183.117 108.412C183.709 109.291 184.152 110.277 184.437 111.297C185.084 113.62 184.91 116.145 183.873 118.325C183.657 118.779 182.985 118.382 183.199 117.931C184.072 116.098 184.252 113.966 183.808 111.992C183.583 110.996 183.207 110.041 182.676 109.168C182.129 108.267 181.406 107.556 180.657 106.825C179.903 106.091 179.145 105.249 178.966 104.172C178.77 102.993 179.234 101.89 179.724 100.845C180.215 99.7988 180.672 98.7789 180.743 97.606C180.814 96.4378 180.591 95.2727 180.153 94.191C179.186 91.7989 177.147 90.0049 174.98 88.7115C174.548 88.4549 174.941 87.7781 175.373 88.0362H175.374Z" fill="white"/>
<path d="M107.897 82.3299C109.388 81.2467 110.096 79.4449 110.481 77.7034C110.914 75.744 110.939 73.7228 111.327 71.7541C111.719 69.773 112.541 67.8863 114.124 66.5759C115.63 65.3289 117.518 64.6582 119.444 64.4311C122.171 64.1081 124.915 64.6922 127.565 65.2779C128.055 65.386 127.847 66.1401 127.356 66.0319C123.278 65.1295 118.499 64.2348 114.884 66.9622C111.512 69.5042 112.041 74.038 111.27 77.7312C110.848 79.757 110.008 81.7566 108.291 83.0052C108.119 83.1288 107.856 83.0345 107.757 82.8646C107.642 82.6668 107.726 82.4535 107.897 82.3299Z" fill="white"/>
<path d="M102.03 80.8796C103.576 80.3434 104.526 78.8398 105.018 77.3487C105.665 75.3815 105.596 73.2676 105.947 71.2433C106.269 69.3905 107.034 67.6876 108.209 66.2196C109.35 64.7934 110.846 63.6529 112.511 62.9112C114.588 61.9871 116.885 61.6302 119.145 61.8249C119.641 61.8682 119.646 62.6501 119.145 62.6068C115.329 62.2761 111.428 63.5896 108.926 66.5689C107.746 67.9735 107.013 69.647 106.698 71.4504C106.345 73.4762 106.416 75.5871 105.768 77.5557C105.186 79.3251 104.059 81.0001 102.237 81.6321C101.762 81.7975 101.557 81.0419 102.029 80.8781L102.03 80.8796Z" fill="white"/>
<path d="M104.224 66.0416C104.905 64.0327 105.927 62.0022 107.555 60.596C108.408 59.8605 109.42 59.3073 110.544 59.142C110.752 59.111 110.964 59.1945 111.024 59.4155C111.075 59.5993 110.96 59.8651 110.751 59.896C108.85 60.1773 107.398 61.5897 106.411 63.1627C105.255 65.0078 104.592 67.1356 104.21 69.2681C103.985 70.5182 103.865 71.7838 103.803 73.0525C103.778 73.5531 102.998 73.5562 103.023 73.0525C103.139 70.682 103.459 68.2961 104.224 66.0416Z" fill="white"/>
<path d="M208.658 99.5703C208.658 99.5703 207.363 105.16 205.373 111.248C203.381 117.336 216.524 118.933 220.307 123.823C224.09 128.714 225.485 151.17 233.35 153.666C241.215 156.161 232.455 116.837 231.459 115.839C230.463 114.841 230.563 114.142 230.563 114.142L229.368 117.137C229.368 117.137 230.862 123.425 232.156 129.413C233.45 135.4 235.242 149.773 233.948 151.769C232.653 153.766 229.469 149.175 227.576 144.683C225.684 140.192 223.592 127.816 222 123.924C220.407 120.031 213.437 115.541 210.649 114.442C207.862 113.345 207.364 112.945 208.459 109.452C209.553 105.958 210.649 102.067 210.649 102.067L208.658 99.5719V99.5703Z" fill="#4A3333"/>
<path d="M236.412 113.024L244.209 125.972L254.161 132.805C254.161 132.805 256.489 130.433 255.539 126.274C254.146 120.173 238.804 107.429 238.024 106.842C237.244 106.255 236.413 113.024 236.413 113.024H236.412Z" fill="#A54B22"/>
<path d="M233.927 129.324C233.927 129.324 243.367 126.733 244.537 125.951C245.707 125.169 254.16 132.806 254.16 132.806C254.16 132.806 248.559 138.776 237.828 140.663C224.907 142.935 233.928 129.324 233.928 129.324H233.927Z" fill="#A54B22"/>
<path d="M216.771 130.939C216.771 130.939 218.894 131.704 222.598 131.308C227.531 130.783 234.513 129.015 235.683 128.542C237.731 127.716 240.654 144.42 237.832 146.379C235.243 148.177 219.709 153.061 216.003 152.083C212.297 151.105 216.771 130.939 216.771 130.939Z" fill="#ED4450"/>
<path d="M108.187 259.542C108.187 259.542 109.049 259.798 110.179 258.446C111.309 257.094 112.044 253.458 114.056 249.811C115.473 247.243 117.057 244.345 119.254 243.186C120.102 242.738 122.713 241.871 126.749 241.592C124.424 238.994 127.04 230.724 127.04 230.724L120.421 232.875C117.916 231.319 116.097 230.421 115.09 229.968C114.572 229.735 113.962 229.917 113.652 230.395C111.756 233.331 105.38 243.511 104.945 248.315C104.007 258.712 108.186 259.542 108.186 259.542H108.187Z" fill="#A54B22"/>
<path d="M119.166 240.272C118.926 239.131 118.978 237.878 119.115 236.727C119.188 236.123 119.32 235.539 119.464 234.948C119.59 234.428 119.717 233.902 119.892 233.395C119.968 233.177 120.054 232.942 120.153 232.709C117.787 231.255 116.062 230.404 115.09 229.966C114.572 229.733 113.962 229.915 113.652 230.393C111.756 233.329 105.38 243.509 104.945 248.313C104.007 258.71 108.186 259.54 108.186 259.54C108.186 259.54 109.048 259.796 110.177 258.444C111.307 257.092 112.043 253.456 114.054 249.809C115.471 247.241 117.056 244.343 119.253 243.185C119.456 243.076 119.786 242.953 120.221 242.823C119.744 242.029 119.356 241.182 119.163 240.27L119.166 240.272Z" fill="#EBEBF3"/>
<path d="M104.947 248.315C104.008 258.711 108.187 259.541 108.187 259.541C108.187 259.541 109.049 259.798 110.179 258.446C111.309 257.093 112.044 253.457 114.056 249.811C114.918 248.248 115.843 246.566 116.93 245.224C117.039 243.812 116.997 241.911 116.205 240.728C114.818 238.655 113.78 240.828 114.394 238.587C114.872 236.843 118.157 233.678 119.586 232.363C117.511 231.118 115.983 230.368 115.092 229.966C114.574 229.733 113.964 229.915 113.654 230.393C111.758 233.329 105.382 243.509 104.947 248.313V248.315Z" fill="#812A2E"/>
<path d="M108.187 259.542C108.187 259.542 108.506 259.634 109.009 259.406C107.921 259.45 106.937 258.162 106.259 256.324C105.52 254.323 105.354 249.378 106.222 246.697C107.09 244.016 108.852 240.306 109.809 239.122C110.768 237.939 111.913 237.061 112.98 235.196C113.809 233.745 115.516 231.459 116.234 230.514C115.781 230.287 115.397 230.106 115.09 229.968C114.572 229.735 113.962 229.917 113.652 230.395C111.756 233.331 105.38 243.511 104.945 248.315C104.007 258.712 108.186 259.542 108.186 259.542H108.187Z" fill="#464646"/>
<path d="M209.911 179.11L208.488 187.184L235.273 211.097C239.384 215.308 240.773 220.088 241.132 227.4C241.132 227.4 243.136 263.964 241.625 264.437C240.113 264.91 221.881 269.592 221.881 269.592L220.098 225.977L195.02 204.482L177.438 231.053C175.279 234.606 170.643 239.112 166.109 240.407L127.52 250.012C123.758 251.356 122.806 238.898 123.493 231.41L159.721 219.689C159.721 219.689 176.979 188.589 176.979 188.062C176.979 187.535 183.107 170.863 183.107 170.863L209.911 179.11Z" fill="#EEB34D"/>
<path d="M180.044 188.818C181.457 189.261 183 188.958 184.246 188.19C185.47 187.435 186.336 186.202 186.822 184.862C187.099 184.094 187.255 183.29 187.307 182.474C187.329 182.144 187.841 182.182 187.821 182.515C187.722 184.065 187.252 185.614 186.347 186.886C185.431 188.175 184.07 189.113 182.516 189.43C181.639 189.609 180.73 189.573 179.876 189.306C179.56 189.207 179.729 188.72 180.045 188.819L180.044 188.818Z" fill="#DA9F3B"/>
<path d="M158.275 221.691L159.47 219.143C159.529 219.017 159.709 218.986 159.821 219.051C159.951 219.126 159.973 219.276 159.914 219.403L158.719 221.951C158.661 222.078 158.479 222.109 158.368 222.044C158.238 221.968 158.217 221.818 158.275 221.691Z" fill="#DA9F3B"/>
<path d="M198.16 200.143C201.634 202.979 206.218 206.658 209.637 209.562C213.043 212.456 216.424 215.384 219.774 218.345C221.664 220.014 223.543 221.693 225.414 223.384C225.579 223.532 225.336 223.775 225.172 223.627C221.844 220.62 218.487 217.645 215.101 214.704C211.725 211.773 208.322 208.874 204.889 206.009C202.954 204.394 199.872 201.98 197.919 200.386C197.748 200.247 197.992 200.004 198.161 200.143H198.16Z" fill="#DA9F3B"/>
<path d="M160.956 221.414C163.321 217.369 165.687 213.323 168.052 209.276C170.417 205.231 172.783 201.185 175.148 197.138C176.475 194.868 177.802 192.6 179.128 190.33C179.239 190.14 179.536 190.311 179.424 190.503C177.059 194.548 174.693 198.594 172.328 202.641C169.963 206.686 167.597 210.732 165.232 214.779C163.905 217.049 162.578 219.317 161.252 221.587C161.141 221.778 160.843 221.606 160.956 221.414Z" fill="#DA9F3B"/>
<path d="M123.879 232.012C128.662 230.787 138.678 228.15 143.461 226.925C145.84 226.316 148.217 225.706 150.595 225.097C151.176 224.949 151.756 224.799 152.337 224.65C152.875 224.513 153.439 224.383 153.987 224.547C154.392 224.669 154.859 224.989 155.252 224.672C155.487 224.483 155.627 224.19 155.769 223.932C155.918 223.66 156.072 223.354 156.333 223.17C156.61 222.975 156.965 223.008 157.23 223.207C157.552 223.45 157.77 224.011 158.24 223.969C158.759 223.924 159.143 223.318 159.368 222.907C159.475 222.713 159.771 222.887 159.664 223.08C159.311 223.726 158.507 224.714 157.686 224.153C157.389 223.949 157.199 223.461 156.826 223.386C156.558 223.334 156.382 223.569 156.256 223.77C155.955 224.247 155.732 224.938 155.134 225.119C154.605 225.278 154.147 224.884 153.64 224.82C153.043 224.746 152.419 224.983 151.849 225.128C147.01 226.367 142.171 227.608 137.332 228.847L123.971 232.341C123.757 232.395 123.666 232.065 123.88 232.01L123.879 232.012Z" fill="#DA9F3B"/>
<path d="M193.358 206.973C195.006 204.167 196.712 201.396 198.48 198.666C198.978 197.895 199.482 197.128 199.99 196.364C200.233 195.997 200.827 196.34 200.582 196.711C198.781 199.422 197.039 202.169 195.357 204.955C194.882 205.74 194.414 206.53 193.95 207.321C193.726 207.703 193.133 207.357 193.358 206.973Z" fill="#FCD8C0"/>
<path d="M226.527 226.27C226.711 225.97 226.843 225.117 226.302 225.095C226.082 225.086 226.082 224.743 226.302 224.752C226.937 224.777 227.102 225.478 226.998 226.001C226.857 226.696 226.079 227.109 225.997 227.813C226.376 228.002 226.771 228.238 226.988 228.612C227.195 228.968 227.161 229.379 226.959 229.728C226.748 230.091 226.406 230.363 226.211 230.737C226.014 231.116 226.144 231.48 226.393 231.797C226.652 232.128 226.976 232.403 227.204 232.76C227.48 233.191 227.495 233.668 227.374 234.157C227.297 234.467 227.184 234.769 227.112 235.082C227.036 235.407 226.988 235.736 226.959 236.067C226.907 236.685 226.917 237.306 226.942 237.926C227.163 243.292 227.471 248.659 227.736 254.024L228.186 263.121C228.197 263.342 227.855 263.342 227.844 263.121C227.582 257.829 227.321 252.538 227.059 247.245C226.928 244.584 226.796 241.925 226.665 239.264C226.603 238.028 226.497 236.774 226.677 235.543C226.72 235.251 226.78 234.962 226.862 234.679C226.951 234.365 227.076 234.052 227.105 233.724C227.152 233.226 226.888 232.865 226.572 232.514C226.284 232.197 225.948 231.88 225.817 231.46C225.68 231.023 225.851 230.609 226.116 230.263C226.367 229.935 226.802 229.578 226.791 229.125C226.777 228.578 226.154 228.269 225.732 228.065C225.68 228.04 225.646 227.974 225.647 227.917C225.658 227.231 226.198 226.814 226.527 226.273V226.27Z" fill="#DA9F3B"/>
<path d="M219.335 225.791C219.407 225.666 219.589 225.607 219.715 225.69C220.418 226.154 221.121 226.617 221.823 227.081C221.948 227.164 222.002 227.328 221.923 227.463C221.85 227.588 221.669 227.647 221.542 227.563C220.839 227.1 220.136 226.636 219.435 226.172C219.308 226.089 219.256 225.925 219.335 225.791Z" fill="#DA9F3B"/>
<path d="M232.509 263.483C232.509 263.483 221.843 267.916 221.827 269.389C221.81 270.976 235.112 267.499 236.25 266.251C237.388 265.002 232.509 263.481 232.509 263.481V263.483Z" fill="#1A1A1A"/>
<path d="M261.615 272.286C261.615 272.286 261.473 271.396 259.768 270.959C258.063 270.521 248.345 270.132 247.631 270.016C246.917 269.9 243.042 269.61 242.119 269.35C241.422 269.154 241.781 266.205 241.897 262.948C242.012 259.691 232.504 263.487 232.504 263.487C232.504 263.487 232.428 271.92 232.339 272.751C231.833 277.433 232.011 282.749 232.011 282.749C232.011 282.749 237.537 282.248 242.872 280.363C248.208 278.478 261.616 272.286 261.616 272.286H261.615Z" fill="#A54B22"/>
<path d="M259.768 270.959C258.063 270.521 248.345 270.132 247.631 270.016C246.917 269.9 243.036 269.63 242.119 269.35C241.958 269.301 241.849 269.073 241.775 268.733C238.479 269.036 235.245 269.956 232.378 271.589C232.37 272.152 232.356 272.578 232.337 272.751C231.832 277.433 232.009 282.749 232.009 282.749C232.009 282.749 237.536 282.248 242.871 280.363C248.206 278.478 261.615 272.286 261.615 272.286C261.615 272.286 261.473 271.396 259.768 270.959Z" fill="#EBEBF3"/>
<path d="M239.129 273.777C237.434 274.298 234.058 274.445 232.182 274.463C231.872 278.639 232.008 282.747 232.008 282.747C232.008 282.747 237.534 282.247 242.869 280.362C248.205 278.476 261.613 272.284 261.613 272.284C261.613 272.284 261.471 271.394 259.766 270.957C258.061 270.52 248.343 270.13 247.63 270.014C247.098 269.928 244.812 269.756 243.299 269.559C242.324 269.997 241.244 270.565 240.66 271.139C239.424 272.359 241.289 273.113 239.129 273.776V273.777Z" fill="#812A2E"/>
<path d="M261.16 271.621C258.971 271.49 254.041 272.981 250.589 274.007C246.691 275.166 244.355 276.749 242.849 277.217C241.343 277.685 238.78 277.503 235.442 278.615C233.685 279.201 232.606 279.842 231.978 280.318C231.977 281.783 232.008 282.747 232.008 282.747C232.008 282.747 237.534 282.247 242.869 280.361C248.205 278.476 261.613 272.284 261.613 272.284C261.613 272.284 261.559 271.969 261.16 271.621Z" fill="#464646"/>
<path d="M241.303 279.116C241.303 279.116 231.886 282.014 232.009 282.748C232.133 283.482 244.405 281.101 251.903 278.555C259.399 276.01 261.832 272.529 261.615 272.285C261.009 271.606 255.069 273.736 251.027 274.918C246.985 276.1 244.648 277.67 241.305 279.115L241.303 279.116Z" fill="#343434"/>
<path d="M216.771 130.939C216.771 130.939 221.83 137.403 223.096 140.247C224.362 143.092 220.008 148.474 220.008 148.474C220.008 148.474 218.536 155.462 216.225 164.244L211.527 185.822C211.527 185.822 208.007 186.343 198.218 183.486C188.43 180.628 177.509 178.361 177.509 178.361L184.123 153.586C184.123 153.586 183.104 154.149 180.608 155.729C179.379 156.508 175.117 138.82 175.117 138.82C175.117 138.82 189.532 126.723 192.721 125.22C195.911 123.716 207.919 125.918 207.919 125.918L216.769 130.94L216.771 130.939Z" fill="#ED4450"/>
<path d="M195.377 144.888C196.267 140.927 196.76 136.828 196.292 132.774C195.972 130.021 195.18 127.313 193.853 124.884C193.984 124.861 194.121 124.839 194.261 124.819C194.57 125.391 194.85 125.978 195.101 126.578C196.612 130.177 197.035 134.128 196.796 138.002C196.652 140.348 196.273 142.672 195.758 144.963C195.703 145.209 195.32 145.133 195.376 144.888H195.377Z" fill="#C02328"/>
<path d="M181.841 150.258C181.841 150.258 181.809 155.98 180.218 155.733C178.541 155.472 177.529 149.734 177.529 149.734L181.841 150.258Z" fill="#1A1A1A"/>
<path d="M168.968 173.677C168.968 173.677 168.581 178.466 169.043 179.118C169.724 180.077 171.314 182.748 171.456 184.35C171.456 184.35 170.962 188.916 170.725 189.208C170.162 189.904 169.1 191.163 168.641 191.344C168.001 191.597 167.554 190.242 167.554 190.242C167.554 190.242 167.061 190.397 166.606 189.717C166.606 189.717 166.04 190.237 164.906 189.59C164.906 189.59 164.235 190.006 163.188 189.123C163.188 189.123 162.743 189.245 161.559 188.21C160.375 187.173 159.88 186.696 159.684 185.77C159.489 184.844 160.79 179.337 160.731 178.356C160.672 177.375 162.2 154.868 163.194 150.521C164.189 146.174 175.752 138.605 175.752 138.605C175.752 138.605 177.155 137.324 179.233 140.855C181.309 144.388 181.843 150.258 181.843 150.258L175.975 155.362C175.975 155.362 169.909 164.979 168.969 173.677H168.968Z" fill="#A54B22"/>
<path d="M167.537 186.829L167.162 186.132C167.048 185.919 166.917 185.685 167.022 185.44C167.133 185.177 167.438 185.12 167.679 185.23C167.895 185.328 168.063 185.522 168.183 185.722C168.443 186.16 168.388 186.66 168.226 187.121C168.095 187.495 167.679 188.572 167.619 189.516C167.594 189.893 167.739 190.193 167.502 189.902C167.104 189.417 167.338 187.83 167.468 187.532C167.548 187.348 167.6 187.149 167.67 186.957C167.619 186.932 167.572 186.891 167.54 186.829H167.537Z" fill="#943D11"/>
<path d="M164.758 185.77C164.929 186.397 165.163 187.008 165.471 187.58C165.806 188.201 166.176 188.803 166.53 189.414C166.72 189.738 166.503 189.968 166.282 189.663C165.226 188.202 164.58 187.335 164.206 185.963C164.107 185.6 164.659 185.407 164.759 185.772L164.758 185.77Z" fill="#943D11"/>
<path d="M181.559 155.158C184.474 152.971 187.46 150.881 190.515 148.893C191.371 148.335 192.233 147.787 193.099 147.246C193.418 147.047 193.663 147.58 193.349 147.776C190.307 149.678 187.327 151.681 184.418 153.779C183.584 154.381 182.757 154.991 181.935 155.607C181.634 155.833 181.258 155.385 181.56 155.158H181.559Z" fill="#C02328"/>
<path d="M162.613 186.8C162.693 186.746 162.834 186.76 162.885 186.854C163.339 187.709 164.085 188.773 164.799 189.427C164.984 189.597 164.744 189.6 164.559 189.43C163.822 188.756 163.031 187.954 162.562 187.074C162.513 186.981 162.522 186.865 162.616 186.803L162.613 186.8Z" fill="#943D11"/>
<path d="M161.641 187.409C161.732 187.348 161.849 187.379 161.91 187.464C162.27 187.95 162.689 188.476 163.145 188.959C163.318 189.142 163.215 189.23 163.023 189.066C162.541 188.65 161.964 188.194 161.585 187.681C161.522 187.596 161.554 187.467 161.639 187.411L161.641 187.409Z" fill="#943D11"/>
<path d="M213.911 111.093C213.987 111.282 214.184 111.312 214.326 111.244C214.252 111.547 214.221 111.855 214.298 112.167C214.372 112.461 214.542 112.719 214.778 112.89C214.2 113.632 213.828 114.533 213.72 115.469C213.666 115.936 213.669 116.41 213.745 116.874C213.813 117.294 213.907 117.789 214.241 118.084C214.329 118.161 214.437 118.218 214.55 118.249C214.596 118.262 214.653 118.258 214.698 118.272C214.715 118.277 214.69 118.2 214.721 118.294C214.792 118.518 214.798 118.784 214.849 119.017C214.954 119.496 215.112 119.96 215.344 120.392C215.777 121.202 216.544 121.887 217.468 122.049C218.05 122.153 218.604 122.02 219.13 121.796C219.655 122.364 220.221 122.945 220.953 123.236C222.254 123.753 223.71 123.304 224.682 122.35C225.169 121.873 225.545 121.269 225.794 120.633C225.917 120.315 226.022 119.958 225.866 119.631C225.86 119.617 225.851 119.603 225.843 119.59C226.87 119.133 227.642 118.189 228.049 117.144C228.293 116.518 228.511 115.749 228.342 115.08C228.294 114.888 228.2 114.715 228.077 114.573C228.12 114.44 228.165 114.307 228.202 114.173C228.635 112.652 228.8 110.857 228.104 109.384C227.801 108.74 227.27 108.134 226.518 108.075C226.207 108.05 225.905 108.114 225.65 108.254C225.609 107.047 225.183 105.861 224.4 104.929C223.938 104.379 223.281 103.904 222.536 104.193C222.344 104.268 222.174 104.382 222.02 104.516C221.271 103.966 220.435 103.547 219.507 103.365C218.772 103.221 217.85 103.17 217.172 103.547C216.597 103.867 216.49 104.427 216.557 104.997C216.039 104.788 215.493 104.713 214.975 105.042C214.391 105.414 214.056 106.13 213.833 106.759C213.336 108.157 213.356 109.715 213.915 111.091L213.911 111.093Z" fill="#1A1A1A"/>
<path d="M211.263 120.781C211.263 120.781 209.635 125.324 207.921 125.918C207.921 125.918 210.418 133.812 212.84 135.693C215.262 137.573 216.72 131.196 216.771 130.94C216.822 130.683 215.962 128.979 217.167 124.219C218.373 119.458 211.263 120.781 211.263 120.781Z" fill="#A54B22"/>
<path d="M216.817 122.564C216.594 123.432 216.267 124.305 215.675 124.991C215.374 125.341 215.011 125.628 214.6 125.84C214.224 126.035 213.785 126.113 213.366 126.133C212.473 126.175 211.573 125.929 210.784 125.521C210.283 125.262 209.811 124.923 209.424 124.509C210.478 122.972 211.265 120.781 211.265 120.781C211.265 120.781 215.68 119.96 216.962 121.943C216.919 122.151 216.873 122.358 216.819 122.564H216.817Z" fill="#783116"/>
<path d="M213.37 111.543C214.198 110.259 216.353 109.077 216.353 109.077C216.213 110.775 219.293 108.872 221.291 114.238C221.265 114.286 221.234 114.333 221.209 114.381C220.982 114.818 220.79 115.326 220.748 115.821C220.727 116.062 220.739 116.328 220.833 116.555C220.902 116.723 221.019 116.87 221.112 117.026C221.16 117.108 221.2 117.174 221.184 117.27C221.172 117.351 221.149 117.429 221.121 117.505C221.049 117.697 220.945 117.876 220.839 118.051C220.636 118.384 220.386 118.696 220.216 119.05C220.198 119.089 220.205 119.138 220.239 119.168C220.508 119.404 220.831 119.573 221.177 119.395C221.28 119.341 221.376 119.274 221.466 119.203C221.944 119.078 224.03 118.647 224.038 120.732C224.052 124.253 219.968 123.306 219.968 123.306C217.99 125.746 214.864 126.257 211.591 124.329C210.529 123.703 208.561 122.39 208.447 120.917C208.231 118.131 212.865 112.33 213.37 111.546V111.543Z" fill="#A54B22"/>
<path d="M216.47 117.788C216.481 117.732 216.501 117.675 216.526 117.625C216.55 117.576 216.583 117.526 216.623 117.488C216.684 117.426 216.742 117.387 216.822 117.352C216.84 117.344 216.859 117.336 216.879 117.332C216.922 117.321 216.968 117.309 217.011 117.309C217.099 117.309 217.186 117.321 217.264 117.363C217.343 117.404 217.404 117.463 217.458 117.534C217.543 117.649 217.577 117.794 217.569 117.934C217.565 118.015 217.546 118.097 217.503 118.168C217.478 118.208 217.451 118.245 217.418 118.279C217.38 118.345 217.327 118.403 217.258 118.44C217.207 118.468 217.17 118.483 217.115 118.494C217.051 118.506 217.01 118.508 216.943 118.5C216.911 118.497 216.882 118.488 216.851 118.477C216.819 118.466 216.786 118.457 216.757 118.438C216.646 118.37 216.56 118.277 216.509 118.157C216.509 118.155 216.507 118.154 216.506 118.152V118.149C216.503 118.14 216.496 118.132 216.493 118.123C216.456 118.018 216.45 117.897 216.472 117.788H216.47Z" fill="#1A1A1A"/>
<path d="M211.633 114.652C211.65 114.612 211.678 114.576 211.701 114.541C211.71 114.527 211.719 114.515 211.732 114.504C211.761 114.474 211.793 114.445 211.827 114.422C211.9 114.372 211.971 114.352 212.055 114.335C212.112 114.324 212.176 114.329 212.233 114.34C212.29 114.351 212.35 114.371 212.398 114.403C212.467 114.448 212.53 114.496 212.573 114.569C212.616 114.64 212.641 114.709 212.649 114.793C212.652 114.831 212.649 114.873 212.644 114.912C212.643 114.929 212.64 114.944 212.635 114.96C212.61 115.041 212.583 115.106 212.526 115.173C212.493 115.21 212.456 115.238 212.416 115.262C212.408 115.269 212.402 115.275 212.394 115.281C212.378 115.292 212.359 115.3 212.342 115.309C212.324 115.318 212.305 115.329 212.285 115.335C212.282 115.335 212.277 115.335 212.274 115.337C212.223 115.358 212.173 115.375 212.114 115.384C212.026 115.397 211.941 115.375 211.86 115.346C211.83 115.335 211.809 115.32 211.781 115.303C211.733 115.27 211.698 115.238 211.664 115.19C211.613 115.122 211.588 115.031 211.579 114.947C211.573 114.888 211.577 114.824 211.593 114.766C211.604 114.728 211.616 114.689 211.633 114.652Z" fill="#1A1A1A"/>
<path d="M217.927 114.337C218.097 114.324 218.214 114.451 218.24 114.607C218.371 115.392 218.59 116.162 218.883 116.902C218.941 117.049 218.847 117.225 218.702 117.274C218.547 117.328 218.388 117.24 218.331 117.094C218.02 116.305 217.798 115.486 217.657 114.65C217.631 114.494 217.781 114.348 217.927 114.337Z" fill="#1A1A1A"/>
<path d="M212.134 112.691C212.276 112.605 212.441 112.642 212.539 112.772C212.556 112.795 212.575 112.818 212.593 112.84C212.595 112.843 212.595 112.841 212.599 112.846C212.61 112.858 212.623 112.869 212.633 112.881C212.68 112.928 212.727 112.971 212.78 113.011C212.803 113.03 212.828 113.047 212.852 113.065C212.854 113.065 212.854 113.065 212.857 113.068C212.871 113.078 212.885 113.085 212.899 113.095C212.959 113.13 213.02 113.163 213.084 113.191C213.113 113.204 213.144 113.217 213.174 113.228C213.178 113.228 213.19 113.234 213.199 113.237C213.207 113.238 213.215 113.242 213.216 113.242C213.279 113.26 213.343 113.275 213.406 113.286C213.438 113.292 213.47 113.297 213.503 113.3C213.518 113.302 213.534 113.303 213.548 113.305C213.617 113.305 213.685 113.305 213.753 113.299C213.905 113.286 214.061 113.413 214.066 113.569C214.07 113.73 213.959 113.869 213.796 113.883C213.124 113.94 212.461 113.632 212.054 113.096C211.961 112.974 212.004 112.769 212.134 112.69V112.691Z" fill="#1A1A1A"/>
<path d="M211.95 117.905C211.969 117.871 211.995 117.844 212.028 117.824C212.049 117.814 212.072 117.803 212.094 117.79C212.143 117.773 212.194 117.77 212.246 117.78C212.271 117.787 212.296 117.797 212.32 117.804C212.367 117.827 212.404 117.86 212.433 117.903C212.496 118.01 212.561 118.116 212.624 118.225C212.647 118.255 212.661 118.291 212.666 118.33C212.677 118.367 212.678 118.405 212.669 118.446C212.663 118.486 212.647 118.521 212.623 118.552C212.604 118.586 212.578 118.612 212.546 118.633L212.479 118.667C212.43 118.684 212.379 118.687 212.327 118.677C212.302 118.67 212.277 118.66 212.253 118.653C212.206 118.629 212.169 118.597 212.14 118.554C212.077 118.447 212.012 118.34 211.949 118.234C211.926 118.203 211.912 118.167 211.907 118.129C211.897 118.092 211.895 118.053 211.904 118.013C211.91 117.973 211.926 117.937 211.95 117.906V117.905Z" fill="#92391F"/>
<path d="M211.923 120.799C211.923 120.799 212.485 119.171 211.642 118.582C210.868 118.043 210.953 120.084 210.953 120.084C210.953 120.084 210.722 120.021 210.656 120.339C210.591 120.654 211.616 121.689 211.923 120.799Z" fill="white"/>
<path d="M216.026 107.327C216.324 107.094 221.502 112.17 221.167 112.342C221.163 112.345 221.158 112.346 221.152 112.348C221.266 112.519 221.389 112.689 221.487 112.87C221.531 112.953 221.564 113.038 221.582 113.123C221.685 113.303 221.758 113.499 221.716 113.694C221.715 113.701 221.71 113.709 221.708 113.717C221.789 113.678 221.86 113.64 221.954 113.59C222.092 113.516 222.265 113.53 222.359 113.67C222.441 113.793 222.419 114.003 222.279 114.077C221.963 114.247 221.645 114.411 221.288 114.466C220.959 114.517 220.616 114.438 220.347 114.242C220.05 114.026 219.959 113.678 219.948 113.327C219.942 113.136 219.957 112.947 219.988 112.76C219.882 112.782 219.777 112.804 219.667 112.817C219.187 112.881 218.641 112.884 218.222 112.607C217.665 112.24 217.611 111.575 217.832 111.011C217.358 111.07 216.88 111.09 216.406 111.057C215.826 111.017 215.274 110.806 214.983 110.272C214.369 109.149 215.151 108.012 216.028 107.324L216.026 107.327Z" fill="#1A1A1A"/>
<path d="M208.026 98.0469C208.026 98.0469 206.623 100.739 206.796 101.535C206.896 101.998 227.274 117.239 227.989 117.565C228.704 117.891 239.04 117.891 239.43 117.565C239.82 117.239 240.509 113.909 240.509 113.909L208.026 98.0469Z" fill="#4A3333"/>
<path d="M240.509 113.907C240.509 113.907 231.083 113.907 229.862 113.558C228.639 113.209 208.739 99.2102 208.043 98.1594C207.344 97.1102 218.866 99.034 219.564 99.3848C220.262 99.734 240.511 113.909 240.511 113.909L240.509 113.907Z" fill="#6C4E4E"/>
<path d="M208.266 97.8996C209.538 97.8022 212.704 97.9598 214.855 98.2921C215.851 98.445 217.485 99.1234 218.314 99.7122C219.1 100.268 219.811 100.934 220.571 101.528C223.614 103.908 226.905 105.944 229.997 108.256C231.733 109.554 233.409 110.937 234.924 112.492C235.106 112.679 234.969 112.981 234.718 112.992C233.802 113.031 232.886 113.069 231.971 113.108C231.399 113.133 230.041 113.025 229.959 113.868C229.923 114.241 229.338 114.244 229.375 113.868C229.475 112.83 230.528 112.586 231.397 112.547C232.279 112.509 233.159 112.473 234.041 112.436C231.488 109.928 228.539 107.88 225.599 105.856C224.033 104.778 222.464 103.699 220.947 102.551C220.201 101.987 219.469 101.403 218.752 100.802C218.368 100.479 217.98 100.16 217.54 99.9161C217.112 99.6782 215.755 98.9952 215.279 98.8823C214.152 98.615 213.099 98.5038 211.947 98.4049C210.711 98.2998 209.473 98.2302 208.234 98.1932C207.858 98.1823 207.89 97.9305 208.266 97.9011V97.8996Z" fill="#4A3333"/>
<path d="M227.147 105.949C227.147 105.949 224.92 105.759 224.588 105.559C224.257 105.36 222.604 104.493 222.533 104.195C222.464 103.897 224.756 104.419 225.023 104.485C225.288 104.552 227.346 105.816 227.147 105.949Z" fill="#EEB34C"/>
<path d="M238.023 106.842C238.023 106.842 235.049 105.162 233.509 104.805C231.971 104.45 228.51 104.277 227.207 104.04C225.905 103.802 225.991 105.221 227.056 105.518C228.121 105.814 228.773 106.052 228.773 106.052C228.773 106.052 226.057 106.037 225.997 106.842C225.934 107.689 226.58 107.67 227.627 107.873C227.286 108.118 227.344 108.908 228.44 109.189C229.159 109.375 232.68 109.671 232.68 109.671C232.68 109.671 230.185 109.885 230.608 110.62C230.942 111.201 232.183 111.306 234.303 111.41C235.316 111.459 237.711 111.807 237.711 111.807L238.021 106.84L238.023 106.842Z" fill="#A54B22"/>
<path d="M243.691 125.084C244.241 125.957 244.792 126.83 245.342 127.703C245.544 128.023 245.038 128.318 244.836 128C244.286 127.127 243.736 126.254 243.185 125.381C242.984 125.061 243.489 124.766 243.691 125.084Z" fill="#943D11"/>
<path d="M233.128 104.581C233.515 104.55 233.791 104.794 234.076 105.017C234.342 105.222 234.625 105.278 234.941 105.366C235.26 105.454 235.569 105.598 235.737 105.899C235.821 106.053 235.829 106.25 235.969 106.369C236.059 106.446 236.182 106.489 236.29 106.534C236.561 106.647 236.847 106.752 237.021 107.002C237.129 107.158 237.163 107.338 237.172 107.525C237.181 107.725 237.158 107.872 237.312 108.022C237.579 108.282 237.866 108.453 238.006 108.819C238.145 109.184 238.111 109.572 237.941 109.918C237.775 110.257 237.271 109.96 237.435 109.621C237.576 109.334 237.513 108.988 237.286 108.765C237.075 108.558 236.816 108.419 236.68 108.143C236.597 107.973 236.591 107.792 236.588 107.606C236.585 107.467 236.589 107.359 236.477 107.268C236.29 107.117 236.023 107.067 235.814 106.957C235.55 106.818 235.393 106.625 235.288 106.349C235.174 106.046 234.998 105.985 234.696 105.907C234.416 105.832 234.132 105.768 233.888 105.601C233.659 105.445 233.431 105.143 233.13 105.168C232.755 105.199 232.757 104.612 233.13 104.582L233.128 104.581Z" fill="#943D11"/>
<path d="M229.544 105.798C230.478 105.725 231.508 105.623 232.439 105.73C232.597 105.748 232.732 105.852 232.732 106.023C232.732 106.169 232.598 106.334 232.439 106.317C231.508 106.21 230.375 106.04 229.439 106.113C229.282 106.125 228.772 106.179 228.772 106.029C228.772 105.861 229.386 105.812 229.544 105.799V105.798Z" fill="#943D11"/>
<path d="M227.938 107.616C229.874 107.431 232.083 107.233 234.027 107.197C234.403 107.191 234.403 107.777 234.027 107.783C232.081 107.819 229.874 107.661 227.938 107.845C227.563 107.88 227.566 107.65 227.938 107.615V107.616Z" fill="#943D11"/>
<path d="M218.306 155.909C219.24 152.196 219.963 148.428 220.461 144.631C220.481 144.474 220.582 144.339 220.754 144.338C220.896 144.338 221.067 144.474 221.047 144.631C220.543 148.482 219.819 152.299 218.872 156.065C218.78 156.431 218.215 156.275 218.308 155.909H218.306Z" fill="#C02328"/>
<path d="M228.424 116.764C228.57 115.861 228.866 114.99 229.287 114.179C229.461 113.843 229.965 114.14 229.792 114.475C229.395 115.242 229.128 116.068 228.989 116.921C228.965 117.077 228.77 117.166 228.63 117.127C228.464 117.081 228.4 116.923 228.427 116.767L228.424 116.764Z" fill="#6C4E4E"/>
<path d="M260.432 271.121L232.464 279.509C232.458 279.486 232.029 279.594 231.986 279.389C231.861 278.795 231.61 274.966 231.747 274.597C231.903 274.176 232.633 274.147 232.942 273.997C233.008 273.965 233.54 273.785 233.659 273.758C235.128 273.404 239.136 273.656 239.993 273.279C240.7 272.968 240.861 271.491 241.308 270.882L242.384 270.163C242.929 270.42 240.864 272.741 243.34 272.321L255.411 269.924C257.201 270.122 259.059 270.024 260.432 271.121Z" fill="#D14B36"/>
<path d="M241.786 261.297C241.716 263.825 241.496 266.219 241.308 268.485L232.94 271.84C232.782 270.874 232.56 270.33 232.462 268.964C232.339 267.226 232.429 265.434 232.223 263.692C235.243 262.592 238.379 260.584 241.786 261.295V261.297Z" fill="#EFB893"/>
<path d="M232.701 281.425L260.91 271.839C260.956 271.91 261.957 271.467 261.627 272.918C261.607 273.009 260.52 274.057 260.312 274.236C257.693 276.497 241.305 281.531 237.602 281.904C236.087 282.057 234.365 281.792 232.822 281.904C232.596 281.799 232.749 281.497 232.701 281.425Z" fill="#ABAEB0"/>
<path d="M260.432 271.121C260.466 271.147 260.818 271.696 260.91 271.839L232.701 281.425C232.356 280.888 232.589 279.983 232.462 279.507L260.431 271.119L260.432 271.121Z" fill="#E0E1DF"/>
<path d="M123.694 232.54C123.375 235.336 122.878 239.395 123.216 242.125C122.34 241.985 120.288 242.847 119.869 242.246C119.643 241.92 118.952 237.993 118.913 237.334C118.813 235.638 118.715 235.368 119.63 233.739C119.664 233.677 119.593 233.554 119.63 233.5L119.869 233.26C121.315 231.622 121.879 232.239 123.694 231.582C123.671 231.896 123.729 232.23 123.694 232.54Z" fill="#EFB893"/>
<path d="M241.308 268.485C241.265 268.998 241.491 269.717 242.025 269.922C241.955 269.965 241.434 270.709 241.308 270.88C240.861 271.489 240.7 272.966 239.993 273.277C239.136 273.654 235.126 273.402 233.659 273.756L232.942 273.516C232.942 273.003 233.017 272.302 232.942 271.838L241.309 268.483L241.308 268.485Z" fill="#E0E1DF"/>
<path d="M255.411 269.923L243.34 272.32C240.862 272.74 242.93 270.419 242.384 270.163L241.308 270.881C241.434 270.71 241.955 269.967 242.025 269.923C243.583 268.953 252.977 269.654 255.411 269.923Z" fill="#D14B36"/>
<path d="M119.63 233.74C118.713 235.368 118.813 235.639 118.913 237.334C117.282 237.013 118.355 238.731 117.598 239.491C114.637 239.609 116.259 238.156 115.806 236.376C116.82 234.998 117.759 234.372 118.674 233.261C118.562 233.931 119.095 233.729 119.63 233.74Z" fill="#E0E1DF"/>
<path d="M233.659 273.757C233.54 273.786 233.006 273.966 232.942 273.997V273.518L233.659 273.757Z" fill="white"/>
<path d="M119.152 232.54C118.878 232.498 118.941 232.741 118.913 232.78C118.685 233.092 118.691 233.238 118.675 233.259C117.76 234.37 116.82 234.995 115.806 236.374C115.551 236.72 114.572 237.386 114.372 237.931C113.604 240.008 115.083 239.735 116.285 241.166L117.122 244.281C116.624 244.641 113.332 239.225 112.461 241.286L116.524 245.48C116.239 246.064 115.853 246.573 115.568 247.158C115.366 246.794 111.327 242.552 111.027 243.924C110.948 244.284 114.662 246.869 115.329 247.639C115.061 248.206 114.616 248.778 114.374 249.317C113.658 248.7 110.202 245.542 109.832 247.041L114.135 250.036C113.88 250.595 113.686 251.151 113.418 251.714C112.869 251.905 109.411 248.439 109.115 249.917C108.978 250.598 112.448 251.355 112.94 252.911C111.71 255.51 110.27 261.875 106.485 257.703C104.144 251.307 106.334 244.959 109.593 239.372C110.487 237.839 114.358 232.263 115.57 231.344C117.065 230.21 117.68 231.355 119.515 231.583L119.874 231.944C119.655 232.189 119.396 232.316 119.157 232.543L119.152 232.54Z" fill="#D14B36"/>
<path d="M115.567 231.342C114.355 232.262 110.484 237.837 109.59 239.37C106.331 244.958 104.141 251.306 106.482 257.702C102.035 252.798 108.269 238.653 111.981 233.858C112.818 232.776 114.13 230.71 115.567 231.342Z" fill="#CAC9C7"/>
<path d="M116.284 241.168C118.409 243.699 117.546 243.387 116.522 245.481L112.459 241.287C113.33 239.225 116.623 244.642 117.121 244.282L116.284 241.166V241.168Z" fill="#D14B36"/>
<path d="M114.372 249.314C114.307 249.459 114.255 249.767 114.133 250.033L109.831 247.038C110.201 245.539 113.657 248.698 114.372 249.314Z" fill="#D14B36"/>
<path d="M115.567 247.158C115.488 247.321 115.405 247.474 115.328 247.638C114.659 246.868 110.945 244.283 111.025 243.923C111.327 242.55 115.366 246.792 115.567 247.157V247.158Z" fill="#D14B36"/>
<path d="M113.415 251.711C113.237 252.081 113.128 252.506 112.937 252.908C112.445 251.352 108.975 250.593 109.112 249.913C109.41 248.436 112.866 251.902 113.415 251.711Z" fill="#D14B36"/>
<path d="M119.63 233.501C119.785 233.272 119.854 233.279 119.87 233.261L119.63 233.501Z" fill="#E0E1DF"/>
<path d="M118.913 232.78C118.941 232.741 118.878 232.498 119.153 232.54C119.141 232.552 119.184 232.824 118.913 232.78Z" fill="#E0E1DF"/>
<path d="M209.754 188.209C210.654 188.77 210.847 189.21 211.428 189.646C210.754 190.354 210.3 191.239 209.754 192.043L199.714 196.356L200.908 193.361H200.431L195.889 203.546C195.721 203.975 195.319 203.997 195.411 204.624C195.707 204.87 195.914 205.145 196.128 205.463C194.742 204.887 195.18 204.289 193.976 205.584C188.965 210.969 182.866 223.158 177.959 229.786C176.498 231.761 172.747 237.166 170.907 238.293C168.317 239.88 159.674 241.941 156.325 242.845C150.864 244.321 131.619 249.606 127.161 249.555C124.858 249.528 123.446 243.985 123.216 242.126C122.878 239.396 123.375 235.337 123.694 232.541C126.381 231.455 129.265 230.645 132.061 229.905C139.737 227.876 147.531 226.243 155.129 223.914V226.071C156.351 224.85 156.005 222.97 157.878 224.393C157.802 224.626 157.814 228.907 157.878 229.305C158.607 233.89 164.952 236.044 168.994 235.894C166.871 233.746 164.566 231.617 162.898 229.064C161.822 227.419 160.171 224.473 160.269 222.475C164.627 217.041 169.506 207.746 173.177 201.508C174.079 199.976 178.665 190.654 179.154 190.246C179.855 189.657 181.664 189.836 182.621 189.407C185.239 188.229 187.668 185.92 187.999 182.937C193.817 184.431 205.212 185.377 209.754 188.209Z" fill="url(#paint0_linear_1425_13938)"/>
<path d="M241.786 261.296C238.379 260.585 235.243 262.591 232.223 263.693C229.802 264.575 226.888 265.532 224.574 266.569C226.173 265.475 228.124 265.315 227.682 262.974C227.973 262.987 227.986 262.685 227.921 262.495C227.631 261.641 227.179 261.568 227.204 260.219C227.209 260.009 227.921 259.32 227.921 259.261C227.929 258.805 227.201 258.028 227.204 257.583C227.204 257.396 227.674 257.591 227.682 257.223C227.7 256.361 227.754 255.463 227.682 254.587C227.623 253.876 227.606 253.616 227.443 252.908C227.75 252.918 227.702 252.667 227.682 252.429C227.61 251.549 227.213 250.964 227.204 250.872C227.195 250.773 227.805 250.309 227.682 249.194C227.676 249.143 227.028 248.897 226.965 248.475C226.712 246.792 227.677 246.446 227.682 246.318C227.705 245.792 227.306 244.718 227.204 244.042C227.5 244.051 227.489 243.781 227.443 243.563C227.252 242.665 226.757 242.869 226.726 242.724C226.547 241.877 227.175 240.185 227.204 239.848C227.253 239.278 226.628 239.992 227.204 238.29C227.307 237.987 227.571 238.017 226.965 237.811C226.956 236.672 227.448 236.791 227.443 236.733C227.38 235.842 225.553 234.846 227.204 233.378C226.83 231.914 227.238 230.341 226.726 229.184C226.917 229.342 227.135 228.696 226.846 228.465C226.685 228.459 226.695 229.158 226.726 229.184C225.376 228.994 226.957 227.96 226.965 227.866C227.036 227.038 226.475 227.305 226.487 227.147C226.493 227.065 226.754 227.092 226.726 225.829C226.726 225.787 226.769 225.781 226.726 225.35C226.645 224.52 227.343 224.598 226.248 223.672C226.053 223.507 225.767 223.312 225.532 223.193C226.002 222.1 227.667 220.926 227.802 219.599C226.162 219.62 224.511 220.124 223.141 221.036C223.013 219.611 221.631 220.526 220.631 220.317L221.229 219.478C220.89 218.882 218.325 217.457 217.762 216.962C217.492 216.724 217.793 216.245 217.523 216.004C217.466 215.953 216.301 215.718 216.09 215.525C215.821 215.278 216.119 214.813 215.851 214.567C215.823 214.541 215.158 214.835 215.134 214.807C214.93 214.584 214.916 213.32 214.656 213.129C214.597 213.085 213.675 213.476 213.222 213.129C213.117 213.048 211.738 211.529 211.429 211.211C211.411 211.059 211.462 210.766 211.429 210.732C211.104 210.386 209.634 210.121 209.159 209.774C208.684 209.426 206.883 207.864 206.171 207.258C206.091 207.19 205.484 205.801 205.095 205.461C204.898 205.288 204.582 205.87 204.378 205.7C203.813 205.232 203.544 204.158 202.945 203.783C202.883 203.744 202.783 204.506 202.467 204.262C201.679 203.651 201.086 202.712 200.315 202.105C199.783 201.686 199.398 201.894 199.359 201.865C199.106 201.673 198.948 199.998 197.566 200.668C197.833 200.117 198.258 199.535 198.522 198.989C203.349 198.408 207.093 195.962 209.757 192.04C210.303 191.238 210.756 190.351 211.431 189.644C216.663 193.57 238.144 212.251 239.879 217.321C242.592 225.26 242.046 251.918 241.792 261.293L241.786 261.296Z" fill="url(#paint1_linear_1425_13938)"/>
<path d="M226.487 225.83H226.726C226.754 227.093 226.494 227.067 226.487 227.148C226.475 227.306 227.036 227.04 226.965 227.867C226.958 227.961 225.376 228.995 226.726 229.185C227.238 230.342 226.83 231.916 227.204 233.379C225.553 234.847 227.38 235.844 227.443 236.734C227.448 236.792 226.956 236.673 226.965 237.812C226.967 238.047 226.882 238.299 227.204 238.291C226.628 239.993 227.253 239.279 227.204 239.849C227.175 240.186 226.547 241.876 226.726 242.725C226.757 242.87 227.252 242.666 227.443 243.564C226.638 243.555 227.153 243.703 227.204 244.043C227.306 244.72 227.705 245.794 227.682 246.319C227.676 246.446 226.712 246.793 226.965 248.476C227.028 248.898 227.677 249.145 227.682 249.195C227.805 250.31 227.195 250.774 227.204 250.873C227.213 250.966 227.61 251.55 227.682 252.431C226.74 252.458 227.432 252.865 227.443 252.91C227.607 253.616 227.623 253.877 227.682 254.588V257.224C227.674 257.592 227.206 257.397 227.204 257.584C227.201 258.029 227.929 258.806 227.921 259.262C227.921 259.322 227.207 260.01 227.204 260.22C227.179 261.569 227.631 261.642 227.921 262.496C227.126 262.487 227.614 262.62 227.682 262.975C228.124 265.317 226.173 265.476 224.574 266.57C223.617 266.999 222.643 267.75 221.705 268.248C220.796 255.379 221.511 242.015 220.272 229.188C222.174 228.202 224.431 225.566 226.487 225.833V225.83Z" fill="#3A5877"/>
<path d="M183.458 180.061L181.904 181.019C183.438 181.619 185.117 181.781 186.684 182.217C187.104 182.333 187.468 182.921 187.522 182.935C187.017 186.424 183.655 189.051 180.23 189.166L182.501 183.056C179.191 188.869 176.071 195.293 172.7 201.268C169.917 206.201 163.008 219.192 159.192 221.997C158.271 222.675 158.479 224.314 157.04 222.476L132.06 229.904C129.263 230.642 126.381 231.452 123.692 232.54C123.728 232.229 123.669 231.896 123.692 231.582C135.487 227.318 147.615 223.712 159.669 220.32C166.706 206.802 175.275 193.815 179.63 179.104C180.141 179.355 182.653 179.862 183.455 180.063L183.458 180.061Z" fill="#466786"/>
<path d="M211.426 210.735C210.537 210.78 211.155 210.936 211.426 211.214C211.736 211.532 213.116 213.051 213.219 213.132C213.672 213.479 214.596 213.088 214.653 213.132C214.913 213.323 214.929 214.586 215.131 214.81C215.157 214.838 215.82 214.544 215.847 214.57C216.116 214.816 215.818 215.283 216.086 215.528C216.298 215.722 217.465 215.958 217.52 216.007C217.79 216.248 217.489 216.728 217.759 216.965C218.322 217.46 220.887 218.885 221.226 219.481L220.628 220.32C221.628 220.53 223.01 219.614 223.137 221.039C221.661 222.023 221.056 223.349 220.15 224.873L219.672 225.112C219.445 224.622 218.971 224.601 218.596 224.394C216.885 223.442 196.947 206.682 196.125 205.463C195.911 205.144 195.704 204.871 195.408 204.623C195.316 203.996 195.718 203.974 195.886 203.545C196.205 202.73 197.107 201.602 197.56 200.669C198.941 200.002 199.1 201.675 199.353 201.867C199.391 201.896 199.777 201.687 200.309 202.106C201.079 202.713 201.671 203.653 202.461 204.263C202.777 204.508 202.878 203.746 202.939 203.784C203.538 204.16 203.806 205.234 204.372 205.702C204.577 205.87 204.892 205.289 205.089 205.463C205.478 205.802 206.085 207.192 206.165 207.26C206.877 207.867 208.67 209.421 209.153 209.775C209.635 210.129 211.098 210.387 211.423 210.733L211.426 210.735Z" fill="#3A5877"/>
<path d="M225.53 223.194C225.089 224.217 225.384 224.508 226.247 223.673C227.341 224.599 226.643 224.522 226.725 225.352L226.486 225.831C224.429 225.563 222.172 228.199 220.27 229.185C220.045 226.86 220.75 226.152 218.596 224.393C218.971 224.602 219.445 224.624 219.672 225.112L220.15 224.872C221.058 223.349 221.661 222.023 223.137 221.039C224.508 220.125 226.159 219.622 227.799 219.602C227.663 220.929 225.999 222.103 225.528 223.196L225.53 223.194Z" fill="#2A4764"/>
<path d="M232.223 263.692C232.428 265.434 232.339 267.225 232.462 268.965C230.418 268.931 222.855 269.954 221.705 268.246C222.643 267.75 223.617 266.998 224.574 266.568C226.89 265.531 229.802 264.575 232.223 263.692Z" fill="#859AB3"/>
<path d="M160.27 222.476C160.173 224.475 161.824 227.42 162.9 229.065C164.568 231.617 166.874 233.747 168.995 235.895C164.955 236.043 158.608 233.889 157.879 229.306C157.816 228.907 157.804 224.627 157.879 224.393C158.141 223.576 160.174 222.596 160.27 222.476Z" fill="#2A4764"/>
<path d="M187.522 182.937C187.657 182.973 187.864 182.901 187.999 182.937C187.666 185.921 185.237 188.23 182.621 189.407C181.665 189.837 179.855 189.657 179.154 190.246C178.665 190.656 174.079 199.977 173.177 201.508C169.505 207.746 164.626 217.041 160.269 222.476C160.173 222.595 158.14 223.576 157.878 224.393C156.003 222.969 156.351 224.849 155.129 226.072V223.914C147.531 226.243 139.735 227.877 132.061 229.905L157.042 222.477C158.48 224.316 158.272 222.675 159.194 221.998C163.009 219.194 169.919 206.203 172.701 201.27C176.072 195.295 179.193 188.872 182.502 183.058L180.232 189.168C183.655 189.053 187.017 186.426 187.523 182.937H187.522Z" fill="#AAC3DA"/>
<path d="M209.754 192.044C207.09 195.966 203.346 198.412 198.519 198.993C198.934 198.14 199.191 197.167 199.714 196.357L209.754 192.044Z" fill="#3A5877"/>
<path d="M199.712 196.356C199.189 197.166 198.93 198.139 198.517 198.992C198.252 199.538 197.828 200.12 197.562 200.67C197.108 201.604 196.207 202.732 195.887 203.546L200.429 193.361H200.907L199.712 196.356Z" fill="#AAC3DA"/>
<path d="M227.682 257.222V254.586C227.754 255.462 227.701 256.36 227.682 257.222Z" fill="#5F7896"/>
<path d="M226.248 223.674C225.383 224.509 225.091 224.218 225.531 223.195C225.767 223.314 226.053 223.509 226.248 223.674Z" fill="#5F7896"/>
<path d="M226.726 225.831H226.487L226.726 225.352C226.769 225.784 226.726 225.79 226.726 225.831Z" fill="#859AB3"/>
<path d="M227.682 252.43C227.702 252.668 227.75 252.918 227.443 252.909C227.432 252.864 226.74 252.458 227.682 252.43Z" fill="#728AA7"/>
<path d="M226.726 229.185C226.694 229.159 226.683 228.461 226.846 228.467C227.136 228.697 226.917 229.343 226.726 229.185Z" fill="#859AB3"/>
<path d="M227.204 238.292C226.882 238.299 226.967 238.047 226.965 237.812C227.571 238.018 227.307 237.989 227.204 238.292Z" fill="#859AB3"/>
<path d="M227.443 243.564C227.489 243.783 227.5 244.052 227.204 244.043C227.153 243.703 226.638 243.555 227.443 243.564Z" fill="#859AB3"/>
<path d="M211.426 210.734C211.459 210.768 211.408 211.062 211.426 211.213C211.155 210.935 210.537 210.779 211.426 210.734Z" fill="#859AB3"/>
<path d="M227.921 262.494C227.986 262.684 227.973 262.985 227.682 262.973C227.614 262.617 227.126 262.484 227.921 262.494Z" fill="#859AB3"/>
<path d="M232.462 118.239L234.137 128.543C233.192 128.768 232.33 128.708 231.985 128.782C231.237 126.169 230.807 119.617 229.594 117.52C230.506 117.156 231.668 118.151 232.462 118.239Z" fill="#CA4862"/>
<path d="M227.204 104.1C226.817 104.279 223.911 106.198 225.65 106.496C227.326 105.963 228.98 104.722 230.79 105.178C229.143 105.22 227.475 106.574 226.009 106.736C224.107 106.946 224.901 105.976 224.335 105.299C223.036 103.743 221.42 102.381 220.511 100.507C222.832 101.573 225.16 102.52 227.204 104.101V104.1Z" fill="#ECB567"/>
<path d="M220.511 100.504C220.218 102.458 222.778 104.4 224.335 105.296C224.901 105.973 224.107 106.944 226.009 106.733C225.991 107.804 226.658 107.528 226.965 107.692C227.508 107.981 228.572 108.636 229.117 108.65C229.265 110.498 229.993 109.691 230.551 109.608C230.884 110.569 232.963 111.019 233.777 111.045C233.856 111.048 233.965 109.994 234.733 110.566C235.287 110.977 235.055 112.096 235.331 112.483C232.766 113.601 236.603 115.188 236.526 116.917C236.341 118.278 233.427 118.342 232.462 118.235C231.668 118.147 230.506 117.15 229.594 117.516C229.108 116.677 228.143 116.401 227.203 116.319L213.099 107.692C211.98 105.652 211.547 105.905 210.23 104.337C209.774 103.793 209.122 103.305 208.797 102.9C203.996 96.9226 211.01 100.43 211.545 100.263C211.866 100.165 212.538 97.7694 212.979 97.6272C213.935 97.3212 219.313 99.9528 220.509 100.503L220.511 100.504Z" fill="#ECB567"/>
<path d="M210.232 104.34C210.078 104.323 209.877 104.376 209.754 104.34C209.421 104.246 208.915 103.619 208.559 103.382C208.894 103.293 208.821 103.168 208.798 102.903C209.123 103.31 209.775 103.796 210.232 104.34Z" fill="white"/>
<path d="M211.786 100.744C213.972 102.515 216.164 104.423 218.479 106.017C220.283 107.256 232.296 114.186 232.464 115.002C232.564 115.489 231.997 116.069 231.388 116.081C230.033 116.107 210.904 103.801 210.71 102.541C210.666 102.266 211.548 100.746 211.786 100.744Z" fill="#C08746"/>
<path d="M224.335 105.299C222.778 104.401 220.216 102.459 220.511 100.507C221.42 102.381 223.037 103.744 224.335 105.299Z" fill="#C08746"/>
<path d="M238.678 141.003C238.784 136.748 237.711 132.406 236.048 128.542C238.504 127.921 241.631 126.775 243.936 125.667C245.945 128.745 247.532 132.192 252.063 131.058C245.259 128.556 242.949 121.105 238.437 116.081C238.411 116.012 238.462 115.913 238.437 115.842C238.331 115.522 237.676 112.821 237.839 112.727C239.438 113.374 240.944 115.564 242.86 114.644L240.947 114.165L233.298 109.132C232.327 108.985 231.46 109.475 230.549 109.611C229.991 109.695 229.262 110.501 229.116 108.653C230.543 108.69 233.091 106.654 234.733 108.414C232.738 105.91 229.6 107.116 226.964 107.695C226.657 107.531 225.989 107.808 226.008 106.737C227.474 106.575 229.142 105.221 230.788 105.179C228.978 104.724 227.323 105.964 225.649 106.498C223.91 106.201 226.816 104.28 227.203 104.101C228.801 103.362 231.59 103.135 233.298 103.622C236.218 104.453 250.352 116.749 252.541 119.557C262.65 132.525 248.945 137.476 238.676 141.003H238.678Z" fill="#EFB893"/>
<path d="M209.035 185.333C207.534 186.58 209.015 187.144 209.752 188.209C205.212 185.378 193.817 184.431 187.998 182.937C187.862 182.901 187.656 182.972 187.52 182.937C187.466 182.923 187.104 182.334 186.683 182.218C185.114 181.782 183.436 181.62 181.903 181.021L183.457 180.062C188.562 181.347 204.742 185.537 209.035 185.335V185.333Z" fill="#3A5877"/>
<path d="M217.164 132.615C217.124 133.082 217.224 133.595 217.164 134.052C217.133 134.284 217.199 134.542 217.164 134.771C216.996 135.842 216.549 137.318 216.208 138.365C216.201 138.39 216.086 138.52 215.969 138.844C215.755 139.441 214.358 142.477 214.056 142.918C214.047 142.932 213.944 143.009 213.817 143.157C213.68 143.319 213.227 144.057 212.98 143.876C212.956 143.207 212.686 142.953 212.382 142.439C212.325 142.341 212.303 142.221 212.143 141.96C211.096 140.261 210.545 139.66 210.469 137.647C210.469 137.622 210.941 137.724 210.947 137.526C210.984 136.472 210.711 136.095 210.469 135.129C211.056 135.133 211.793 137.03 211.903 135.25C212.078 135.669 212.743 137.659 212.979 137.647C214.346 135.724 215.772 134.47 216.446 132.135L217.162 132.614L217.164 132.615Z" fill="#E0E1DF"/>
<path d="M209.274 105.777C207.881 108.878 206.769 116.592 212.143 113.205C212.1 113.304 212.183 113.556 212.143 113.684C212.129 113.732 211.474 114.508 211.904 114.642C211.457 115.016 210.99 115.237 210.471 115.481C211.889 115.419 211.349 117.64 212.384 117.039C211.588 118.022 210.881 117.113 209.276 117.518C210.233 114.692 209.404 116.785 207.244 115.121C204.246 112.811 205.971 107.59 207.364 104.817L209.277 105.775L209.274 105.777Z" fill="#E9A48A"/>
<path d="M236.527 146.753C236.273 149.125 236.524 152.112 234.496 153.702C233.606 153.875 233.179 153.534 232.464 153.223C232.489 153.115 232.672 152.775 232.703 152.744C233.773 151.661 234.782 148.969 233.659 147.711C234.306 147.453 236.19 146.941 236.527 146.753Z" fill="#CA4862"/>
<path d="M231.268 148.432C231.26 149.689 231.53 151.959 232.701 152.744C232.67 152.775 232.487 153.115 232.462 153.224C231.007 152.592 229.641 150.756 229.832 149.15C229.948 149.112 230.711 148.626 231.266 148.432H231.268Z" fill="#E57481"/>
<path d="M208.558 103.381C208.914 103.617 209.419 104.245 209.752 104.339C210.356 105.014 209.512 105.248 209.274 105.776L207.361 104.818C207.893 103.759 207.343 103.702 208.556 103.381H208.558Z" fill="#ED6C6A"/>
<path d="M181.067 151.068C180.219 151.839 177.918 151.85 177.003 152.746C174.17 158.474 166.809 171.844 168.876 178.027C170.009 181.414 173.669 183.933 171.267 188.81C171.082 189.184 168.813 191.094 168.519 191.086C167.669 191.064 167.42 189.446 167.324 189.408C167.275 189.388 166.649 189.972 166.368 189.887C165.48 189.621 165.015 188.808 164.694 188.689C164.506 188.618 161.674 188.272 161.109 187.971C157.807 184.743 160.649 179.832 160.988 176.349C161.62 169.858 161.327 163.16 162.183 156.699C163.819 144.352 167.363 145.194 175.809 138.128C179.345 139.23 183.743 148.636 181.069 151.068H181.067Z" fill="#EFB893"/>
<path d="M167.799 184.615C168.527 185.215 168.19 188.998 167.56 188.928L167.799 184.615Z" fill="#BD8157"/>
<path d="M164.452 185.334C165.098 186.227 165.069 187.405 165.169 188.449C164.736 188.554 164.243 185.757 164.452 185.334Z" fill="#BD8157"/>
<path d="M161.824 185.814C161.923 185.795 162.437 187.668 162.063 187.731C161.893 187.461 161.463 185.882 161.824 185.814Z" fill="#D89C75"/>
<path d="M243.938 125.666C242.482 123.435 239.288 118.393 238.439 116.081C242.951 121.105 245.26 128.556 252.065 131.058C247.534 132.192 245.945 128.745 243.938 125.666Z" fill="#D89C75"/>
<path d="M238.439 115.841C237.62 114.511 236.219 113.737 235.331 112.486C235.055 112.099 235.286 110.981 234.733 110.569C233.965 109.999 233.856 111.051 233.777 111.048C232.963 111.022 230.882 110.572 230.551 109.611C231.463 109.475 232.328 108.985 233.299 109.132L240.949 114.165L242.862 114.644C240.947 115.563 239.439 113.373 237.841 112.726C237.676 112.82 238.333 115.521 238.439 115.841Z" fill="#D89C75"/>
<path d="M229.116 108.653C228.57 108.639 227.506 107.984 226.964 107.695C229.6 107.115 232.738 105.911 234.733 108.413C233.091 106.653 230.541 108.69 229.116 108.653Z" fill="#C08746"/>
<path d="M227.204 116.321C227.418 118.442 224.446 122.069 222.424 122.551C222.427 122.534 222.14 122.591 222.185 122.312C225.595 118.951 221.449 116.665 219.794 120.754L219.316 120.514C220.787 118.654 222.1 116.223 220.511 114.044C219.539 112.712 214.553 111.113 213.817 110.09C213.319 109.398 213.492 108.409 213.1 107.693L227.204 116.321Z" fill="#321F0D"/>
<path d="M222.183 122.311C221.963 122.529 221.494 122.526 221.466 122.551L219.913 122.311L220.033 123.269C219.704 123.532 217.475 125.388 217.403 125.546C216.933 126.572 216.862 130.696 216.447 132.135C215.774 134.468 214.348 135.723 212.98 137.647C212.746 137.659 212.08 135.669 211.904 135.25C211.426 134.108 208.322 126.519 208.319 126.025C208.314 125.182 209.183 124.289 209.752 123.748C209.752 125.594 213.275 126.603 214.773 125.546C213.299 125.255 210.824 124.351 209.752 123.269C207.457 120.952 208.43 120.012 209.274 117.518C210.879 117.113 211.587 118.022 212.382 117.039L213.697 115.361C213.036 115.708 212.72 116.62 212.382 117.039C211.348 117.64 211.887 115.419 210.469 115.481C210.99 115.237 211.456 115.018 211.903 114.642C212.186 114.406 213.319 113.854 212.142 113.684C212.182 113.556 212.098 113.304 212.142 113.205C212.283 112.879 212.495 112.145 212.858 112.008L214.292 112.607C213.874 112.127 213.746 111.97 213.097 112.008L213.814 110.09C214.55 111.113 219.536 112.711 220.508 114.044C222.097 116.223 220.784 118.654 219.313 120.514L219.791 120.754C221.446 116.665 225.592 118.95 222.182 122.311H222.183Z" fill="#EFB893"/>
<path d="M209.754 123.748V123.269C210.825 124.35 213.301 125.254 214.775 125.545C213.278 126.602 209.754 125.593 209.754 123.748Z" fill="#D89C75"/>
<path d="M215.61 118.477C217.358 118.004 218.417 120.248 217.284 120.634C215.445 121.262 213.711 118.992 215.61 118.477Z" fill="#E9A48A"/>
<path d="M210.828 119.435L213.577 120.753C212.655 121.142 211.12 120.391 210.828 119.435Z" fill="#672C28"/>
<path d="M221.466 122.55C220.64 123.261 220.64 122.97 220.272 123.269C220.224 123.307 220.081 123.23 220.033 123.269L219.913 122.311L221.466 122.55Z" fill="#55102C"/>
<path d="M217.283 114.643C218.214 114.558 218.911 115.037 219.076 115.962L217.283 114.643Z" fill="#421912"/>
<path d="M217.044 116.799C218.066 116.654 217.241 118.076 216.805 117.997C216.148 117.88 216.672 116.852 217.044 116.799Z" fill="#321F0D"/>
<path d="M212.382 117.039C212.72 116.621 213.036 115.71 213.697 115.36L212.382 117.039Z" fill="#E9A48A"/>
<path d="M211.904 114.644C211.474 114.509 212.129 113.732 212.143 113.686C213.321 113.857 212.188 114.407 211.904 114.644Z" fill="#261511"/>
<path d="M212.86 112.007C212.914 111.987 213.016 112.012 213.099 112.007C213.748 111.97 213.877 112.126 214.294 112.607L212.86 112.007Z" fill="#371B1E"/>
<path d="M214.295 172.155C213.578 175.088 213.104 181.202 212.143 183.537C211.556 184.966 210.426 185.268 209.035 185.334C204.744 185.537 188.562 181.346 183.457 180.062C182.655 179.861 180.142 179.353 179.632 179.104C176.241 177.444 179.378 170.622 180.11 167.842L191.465 170.957C198.792 172.436 205.661 173.777 212.023 174.312C212.206 174.327 212.082 174.794 212.262 174.791C214.397 174.758 213.064 173.238 214.294 172.155H214.295Z" fill="#D14B36"/>
<path d="M210.471 137.649C210.545 139.664 211.098 140.265 212.145 141.962L196.845 138.607C196.94 137.059 196.718 135.581 196.606 134.055L209.037 136.331L196.845 133.336C196.802 132.924 196.029 129.255 195.889 128.784L206.885 130.82L195.65 128.305C195.148 126.743 194.665 125.662 193.259 124.711C197.133 124.273 201.673 125.234 205.57 125.429L210.471 137.651V137.649Z" fill="#F18953"/>
<path d="M214.773 170.718C214.662 171.163 214.401 171.721 214.295 172.155C213.065 173.238 214.398 174.759 212.263 174.791C212.083 174.795 212.208 174.328 212.024 174.312C205.662 173.778 198.793 172.436 191.466 170.958L180.111 167.842C180.527 166.266 181.086 164.823 181.545 163.29L214.773 170.718Z" fill="#D14B36"/>
<path d="M185.609 152.744L217.642 159.933C217.232 161.371 216.829 162.798 216.447 164.246C209.185 163.484 201.92 162.085 194.813 160.412C192.55 159.879 185.971 158.584 184.295 157.776C183.42 157.354 183.936 157.071 183.458 156.578C183.646 156.017 183.675 154.466 183.936 153.942C184.454 152.903 185.235 153.066 185.61 152.744H185.609Z" fill="#E46B45"/>
<path d="M216.207 164.966C215.794 166.559 215.414 168.163 215.012 169.758C209.575 168.758 204.047 168.029 198.638 166.882C196.91 166.516 184.472 163.856 184.175 163.167C184.078 162.94 184.566 158.922 184.653 158.255C195.038 161.058 205.555 163.37 216.208 164.964L216.207 164.966Z" fill="#E46B45"/>
<path d="M191.346 148.671L219.075 154.901C218.647 156.328 218.292 157.785 217.881 159.214L186.086 152.265C187.767 150.998 189.67 149.964 191.346 148.671Z" fill="#E46B45"/>
<path d="M219.076 149.869C218.591 150.577 219.419 151.64 220.031 152.026C219.794 152.821 219.553 153.627 219.314 154.423L191.824 148.192C193.347 146.983 193.958 147.233 195.171 145.317C195.356 145.026 195.343 144.739 195.41 144.598C195.464 144.484 195.536 144.414 195.649 144.119L219.076 149.871V149.869Z" fill="#F18953"/>
<path d="M184.653 158.256C184.566 158.924 184.076 162.942 184.175 163.169C184.472 163.856 196.91 166.517 198.638 166.884C204.048 168.03 209.575 168.76 215.012 169.759C214.932 170.078 214.853 170.398 214.773 170.717L181.545 163.289C182.084 161.495 182.399 159.574 182.979 157.777C183.5 158.043 184.095 158.106 184.653 158.256Z" fill="#D14B36"/>
<path d="M216.447 164.248C216.389 164.47 216.289 164.657 216.208 164.966C205.556 163.372 195.04 161.06 184.653 158.257C184.095 158.107 183.5 158.042 182.979 157.778C183.102 157.394 183.332 156.951 183.457 156.58C183.934 157.075 183.418 157.356 184.294 157.778C185.969 158.586 192.549 159.881 194.812 160.414C201.918 162.087 209.183 163.487 216.446 164.248H216.447Z" fill="#D14B36"/>
<path d="M217.881 159.215C217.811 159.454 217.716 159.675 217.642 159.933L185.609 152.745C185.772 152.604 185.863 152.434 186.086 152.266L217.881 159.215Z" fill="#D14B36"/>
<path d="M219.314 154.423C219.253 154.625 219.136 154.7 219.076 154.902L191.346 148.671C191.411 148.62 191.585 148.382 191.824 148.192L219.314 154.423Z" fill="#BA4730"/>
<path d="M212.382 142.441C212.684 142.957 212.954 143.21 212.98 143.878C213.227 144.057 213.679 143.322 213.817 143.159C214.59 143.825 219.543 144.229 219.794 144.717C219.97 145.058 219.228 148.444 219.196 149.15L195.888 143.638C196.295 142.408 196.74 140.361 196.843 139.086L212.382 142.441Z" fill="#F18953"/>
<path d="M222.661 141.962C222.168 143.944 222.108 146.057 221.228 147.953C220.952 148.548 220.703 148.65 220.511 148.912C219.963 149.653 219.125 149.799 219.077 149.87L195.65 144.118C195.721 143.933 195.827 143.826 195.889 143.639L219.197 149.151C219.23 148.445 219.971 145.061 219.795 144.718C219.544 144.229 214.591 143.826 213.819 143.16C213.945 143.012 214.049 142.934 214.058 142.921C215.98 143.193 217.833 143.821 219.795 143.879C222.193 143.948 220.905 143.339 222.664 141.961L222.661 141.962Z" fill="#D14B36"/>
<path d="M212.143 141.961C212.304 142.222 212.325 142.343 212.382 142.44L196.843 139.085C196.856 138.929 196.834 138.764 196.843 138.606L212.143 141.961Z" fill="#D14B36"/>
<path d="M196.606 134.054C196.572 133.591 196.865 133.518 196.845 133.336L209.037 136.331L196.606 134.054Z" fill="#D14B36"/>
<path d="M195.887 128.782C195.827 128.581 195.713 128.504 195.649 128.303L206.883 130.818L195.887 128.782Z" fill="#D14B36"/>
<path d="M220.033 139.565L219.794 143.878C217.831 143.821 215.978 143.19 214.056 142.92C214.358 142.48 215.753 139.442 215.969 138.847C217.235 139.083 218.762 139.517 220.033 139.565Z" fill="#F18953"/>
<path d="M220.033 138.846C218.809 138.639 217.395 138.959 216.208 138.367C216.55 137.319 216.996 135.844 217.164 134.773C220.736 134.155 219.482 136.338 220.033 138.846Z" fill="#F18953"/>
<path d="M220.033 138.847C220.642 138.95 221.38 139.157 221.946 139.446C221.368 139.646 220.639 139.588 220.033 139.567C218.761 139.519 217.235 139.083 215.969 138.848C216.087 138.524 216.201 138.394 216.208 138.369C217.395 138.961 218.809 138.641 220.033 138.848V138.847Z" fill="#A94D42"/>
<path d="M180.35 155.62C179.723 155.435 177.901 153.112 177.004 152.745C177.918 151.85 180.219 151.839 181.067 151.066C181.759 152.579 180.484 154.106 180.35 155.619V155.62Z" fill="#668EC6"/>
<path d="M193.259 124.709C194.665 125.661 195.148 126.741 195.65 128.303C195.715 128.504 195.829 128.582 195.889 128.782C196.029 129.254 196.802 132.922 196.845 133.335C196.863 133.517 196.572 133.59 196.606 134.053C196.718 135.582 196.94 137.057 196.845 138.606C196.836 138.763 196.857 138.929 196.845 139.085C196.74 140.36 196.296 142.407 195.889 143.637C195.827 143.826 195.721 143.931 195.65 144.116C195.538 144.411 195.465 144.482 195.411 144.595L195.291 144.116C195.134 144.461 194.607 145.105 195.171 145.314C193.958 147.23 193.347 146.98 191.824 148.189C191.584 148.38 191.411 148.619 191.346 148.669C189.671 149.962 187.768 150.996 186.086 152.263C185.863 152.431 185.772 152.601 185.609 152.742C185.235 153.063 184.452 152.901 183.934 153.939C183.057 153.91 181.063 155.828 180.349 155.618C180.483 154.105 181.759 152.578 181.066 151.065C183.742 148.633 179.342 139.227 175.806 138.125C177.958 136.325 190.663 125.031 191.941 124.706C192.28 124.619 192.852 124.751 193.256 124.706L193.259 124.709Z" fill="url(#paint2_linear_1425_13938)"/>
<path d="M179.991 138.367C181.622 139.899 183.361 142.15 184.175 144.238C184.446 144.931 186.429 151.675 184.773 151.068C184.082 146.37 182.786 142.22 179.993 138.367H179.991Z" fill="#4B6DB3"/>
<path d="M189.553 141.243C191.086 144.1 191.059 148.365 187.401 149.39C188.904 146.823 189.476 144.235 189.553 141.243Z" fill="#4B6DB3"/>
<path d="M195.41 144.598C195.343 144.739 195.356 145.026 195.171 145.317C194.605 145.107 195.134 144.464 195.291 144.119L195.411 144.598H195.41Z" fill="#AAC3DA"/>
<path d="M222.422 122.551C221.974 125.631 223.407 127.756 223.856 130.698C224.764 136.646 223.944 136.799 222.661 141.96C220.902 143.338 222.191 143.947 219.792 143.878L220.031 139.565C220.637 139.588 221.366 139.645 221.944 139.444C221.379 139.155 220.642 138.948 220.031 138.845C219.481 136.337 220.734 134.153 217.162 134.771C217.198 134.543 217.132 134.285 217.162 134.053C217.893 134.387 219.597 134.679 219.315 133.574C219.697 134.201 222.085 138.713 222.541 138.607C224.312 135.507 223.39 133.891 222.661 130.939C222.034 128.403 221.121 125.747 220.27 123.272C220.639 122.972 220.639 123.262 221.465 122.553C221.494 122.528 221.961 122.531 222.182 122.313C222.137 122.593 222.424 122.536 222.421 122.553L222.422 122.551Z" fill="#ED6C6A"/>
<path d="M218.12 131.418C218.548 132.038 218.911 132.911 219.314 133.576C219.598 134.68 217.893 134.388 217.162 134.055C217.223 133.597 217.122 133.084 217.162 132.617C217.219 131.95 217.122 131.253 217.162 130.581C217.569 130.23 217.952 131.179 218.118 131.42L218.12 131.418Z" fill="#F18953"/>
<path d="M236.527 146.753C236.19 146.943 234.306 147.455 233.659 147.711C232.905 148.011 232.037 148.161 231.268 148.43C230.713 148.624 229.95 149.11 229.834 149.148C226.752 150.187 223.023 150.466 220.033 152.024C220.238 151.339 220.611 150.488 220.75 149.867C225.979 148.57 231.308 146.747 236.049 144.355C236.836 143.958 237.818 143.862 238.44 143.157C238.144 145.1 238.448 145.673 236.527 146.752V146.753Z" fill="#4B6DB3"/>
<path d="M236.049 128.542C237.713 132.406 238.786 136.748 238.679 141.003C238.669 141.45 238.514 142.679 238.44 143.161C237.818 143.867 236.837 143.963 236.049 144.358C237.088 138.9 236.624 135.09 234.855 129.981C234.622 129.309 234.072 128.986 234.855 128.544C235.263 128.445 235.992 128.558 236.049 128.544V128.542Z" fill="#668EC6"/>
<path d="M220.75 149.868C220.609 150.489 220.238 151.339 220.033 152.025C219.421 151.641 218.593 150.576 219.077 149.868C219.126 149.797 219.963 149.652 220.511 148.91C220.472 149.258 220.953 149.077 220.989 149.27C220.995 149.303 220.83 149.511 220.75 149.87V149.868Z" fill="#92465E"/>
<path d="M236.05 144.358C231.309 146.749 225.979 148.574 220.75 149.87C220.83 149.513 220.995 149.303 220.989 149.271C220.953 149.079 220.472 149.258 220.511 148.911C220.703 148.649 220.952 148.547 221.228 147.953C221.261 148.065 222.239 148.676 222.304 148.671C222.926 148.623 233.602 145.42 234.257 145.077C234.559 144.919 235.459 144.456 235.572 144.238C236.429 139.404 235.922 134.702 234.855 129.979C236.626 135.088 237.089 138.9 236.05 144.357V144.358Z" fill="#3B5592"/>
<path d="M234.853 128.542C234.07 128.986 234.62 129.307 234.853 129.98C235.92 134.702 236.429 139.404 235.57 144.238C235.458 144.454 234.557 144.918 234.255 145.077C233.6 145.42 222.925 148.623 222.302 148.671C222.237 148.676 221.26 148.065 221.226 147.953C222.106 146.057 222.168 143.944 222.66 141.962C223.942 136.8 224.762 136.647 223.854 130.7C226.347 130.367 228.928 130.021 231.385 129.502C232.015 129.369 231.937 128.793 231.983 128.784C232.327 128.708 233.19 128.77 234.135 128.544C234.349 128.493 234.639 128.595 234.852 128.544L234.853 128.542Z" fill="url(#paint3_linear_1425_13938)"/>
<path d="M222.661 130.939C223.392 133.891 224.314 135.507 222.541 138.607C222.085 138.713 219.695 134.203 219.315 133.574C218.911 132.911 218.547 132.038 218.12 131.417L222.661 130.938V130.939Z" fill="#668EC6"/>
<path d="M211.873 278.87C210.38 278.87 208.872 278.864 207.394 278.853C206.91 278.85 206.52 278.453 206.523 277.966C206.526 277.483 206.919 277.093 207.4 277.093H207.407C208.883 277.106 210.384 277.11 211.875 277.11C212.359 277.11 212.752 277.504 212.752 277.99C212.752 278.475 212.359 278.869 211.875 278.869L211.873 278.87ZM202.331 278.788C202.331 278.788 202.32 278.788 202.316 278.788C200.617 278.759 198.909 278.722 197.239 278.676C196.755 278.663 196.373 278.258 196.385 277.773C196.398 277.288 196.8 276.906 197.286 276.917C198.949 276.962 200.651 276.999 202.345 277.028C202.829 277.036 203.216 277.438 203.207 277.923C203.199 278.404 202.807 278.787 202.33 278.787L202.331 278.788ZM192.199 278.513C192.188 278.513 192.177 278.513 192.165 278.513C190.464 278.45 188.758 278.377 187.091 278.299C186.607 278.275 186.234 277.863 186.257 277.378C186.281 276.892 186.697 276.523 187.176 276.542C188.836 276.622 190.537 276.693 192.229 276.756C192.713 276.775 193.091 277.183 193.074 277.668C193.057 278.143 192.667 278.515 192.199 278.515V278.513ZM182.075 278.028C182.058 278.028 182.04 278.028 182.023 278.028C180.329 277.928 178.624 277.818 176.956 277.699C176.473 277.665 176.108 277.245 176.142 276.76C176.176 276.274 176.596 275.913 177.079 275.944C178.739 276.061 180.438 276.171 182.126 276.271C182.61 276.301 182.979 276.716 182.951 277.202C182.923 277.668 182.536 278.03 182.075 278.03V278.028ZM171.966 277.311C171.941 277.311 171.916 277.311 171.892 277.308C170.196 277.166 168.494 277.015 166.834 276.854C166.351 276.807 165.998 276.378 166.045 275.894C166.091 275.411 166.521 275.06 167.002 275.103C168.654 275.262 170.349 275.414 172.038 275.556C172.521 275.596 172.88 276.021 172.84 276.505C172.801 276.964 172.417 277.311 171.966 277.311ZM161.878 276.338C161.845 276.338 161.813 276.336 161.781 276.333C160.094 276.148 158.397 275.948 156.735 275.74C156.254 275.679 155.914 275.241 155.974 274.758C156.034 274.276 156.472 273.935 156.953 273.995C158.607 274.202 160.295 274.4 161.972 274.585C162.453 274.638 162.801 275.072 162.749 275.556C162.699 276.005 162.319 276.339 161.878 276.339V276.338ZM151.822 275.08C151.782 275.08 151.741 275.077 151.699 275.071C150.009 274.833 148.318 274.581 146.674 274.323C146.194 274.247 145.867 273.797 145.943 273.317C146.018 272.836 146.467 272.51 146.946 272.584C148.582 272.842 150.264 273.093 151.944 273.328C152.423 273.396 152.758 273.839 152.692 274.321C152.63 274.76 152.254 275.078 151.824 275.078L151.822 275.08ZM141.811 273.504C141.762 273.504 141.711 273.499 141.659 273.49C139.974 273.195 138.292 272.884 136.66 272.566C136.183 272.473 135.873 272.011 135.966 271.535C136.058 271.058 136.518 270.748 136.994 270.84C138.616 271.155 140.287 271.464 141.961 271.758C142.439 271.841 142.758 272.297 142.675 272.776C142.601 273.202 142.229 273.504 141.811 273.504ZM131.865 271.566C131.804 271.566 131.742 271.56 131.68 271.546C130.006 271.186 128.338 270.807 126.721 270.422C126.25 270.31 125.958 269.837 126.071 269.364C126.183 268.891 126.656 268.599 127.127 268.712C128.731 269.093 130.389 269.469 132.049 269.827C132.522 269.929 132.824 270.398 132.722 270.872C132.635 271.285 132.271 271.567 131.865 271.567V271.566ZM122.009 269.216C121.935 269.216 121.861 269.206 121.785 269.186C120.13 268.752 118.48 268.295 116.88 267.831C116.414 267.697 116.146 267.208 116.282 266.742C116.416 266.275 116.903 266.006 117.369 266.142C118.953 266.603 120.59 267.054 122.231 267.485C122.699 267.608 122.98 268.089 122.857 268.559C122.753 268.954 122.397 269.216 122.009 269.216ZM112.278 266.389C112.191 266.389 112.1 266.375 112.012 266.348C110.378 265.824 108.753 265.277 107.185 264.72C106.729 264.558 106.488 264.056 106.65 263.599C106.812 263.141 107.313 262.9 107.769 263.062C109.32 263.612 110.928 264.153 112.545 264.672C113.006 264.821 113.262 265.315 113.114 265.777C112.995 266.151 112.65 266.389 112.278 266.389ZM102.732 262.999C102.625 262.999 102.517 262.979 102.411 262.939C100.803 262.307 99.2184 261.65 97.7 260.985C97.2561 260.791 97.0526 260.273 97.2468 259.828C97.441 259.383 97.959 259.181 98.4014 259.374C99.8998 260.029 101.463 260.678 103.051 261.301C103.502 261.478 103.724 261.988 103.547 262.441C103.411 262.787 103.08 263.001 102.73 263.001L102.732 262.999ZM93.453 258.932C93.3236 258.932 93.1925 258.902 93.0692 258.842C91.5076 258.077 89.983 257.285 88.5355 256.486C88.1116 256.251 87.9574 255.716 88.1902 255.291C88.4245 254.866 88.9579 254.712 89.3818 254.945C90.8031 255.732 92.3031 256.51 93.8384 257.261C94.2732 257.475 94.4551 258.002 94.2423 258.437C94.0897 258.749 93.7783 258.932 93.453 258.932ZM84.5938 254.019C84.4334 254.019 84.2716 253.976 84.1267 253.883C82.6298 252.938 81.2039 251.966 79.8859 250.994C79.4959 250.706 79.4126 250.155 79.6993 249.764C79.9861 249.373 80.5364 249.289 80.9264 249.577C82.2105 250.524 83.601 251.473 85.0624 252.395C85.4724 252.655 85.5958 253.197 85.3368 253.608C85.1703 253.874 84.8851 254.019 84.5938 254.019ZM76.4698 247.971C76.2617 247.971 76.052 247.897 75.884 247.746C73.325 245.442 72.3045 243.972 72.2629 243.91C71.9885 243.51 72.0887 242.963 72.488 242.686C72.8872 242.411 73.4314 242.512 73.7073 242.91C73.7166 242.924 74.6754 244.29 77.0587 246.437C77.4194 246.761 77.4487 247.318 77.125 247.679C76.9523 247.872 76.7118 247.971 76.4713 247.971H76.4698Z" fill="#ED4450"/>
<path d="M209.317 281.553C209.035 281.553 208.758 281.417 208.59 281.165C208.319 280.762 208.425 280.215 208.827 279.944L211.65 278.037L208.898 276.182C208.496 275.91 208.389 275.364 208.661 274.961C208.932 274.557 209.476 274.451 209.879 274.723L213.711 277.308C213.953 277.472 214.098 277.745 214.098 278.037C214.098 278.329 213.953 278.603 213.711 278.767L209.808 281.403C209.657 281.505 209.487 281.553 209.317 281.553Z" fill="#ED4450"/>
<defs>
<linearGradient id="paint0_linear_1425_13938" x1="171.024" y1="182.924" x2="162.585" y2="250.659" gradientUnits="userSpaceOnUse">
<stop stop-color="#496C8B"/>
<stop offset="1" stop-color="#34506A"/>
</linearGradient>
<linearGradient id="paint1_linear_1425_13938" x1="215.92" y1="192.745" x2="227.952" y2="260.662" gradientUnits="userSpaceOnUse">
<stop stop-color="#496B8A"/>
<stop offset="1" stop-color="#35526E"/>
</linearGradient>
<linearGradient id="paint2_linear_1425_13938" x1="186.251" y1="127.679" x2="186.34" y2="143.726" gradientUnits="userSpaceOnUse">
<stop stop-color="#8BB6E2"/>
<stop offset="1" stop-color="#6088C2"/>
</linearGradient>
<linearGradient id="paint3_linear_1425_13938" x1="228.704" y1="131.499" x2="228.548" y2="144.911" gradientUnits="userSpaceOnUse">
<stop stop-color="#77A2D3"/>
<stop offset="1" stop-color="#5174BB"/>
</linearGradient>
</defs>
</svg>
