<svg width="16" height="18" viewBox="0 0 16 18" fill="none" xmlns="http://www.w3.org/2000/svg">
<g clip-path="url(#clip0_1679_11358)">
<path d="M7.9998 0C7.36766 0 6.85695 0.502734 6.85695 1.125V1.8C4.2498 2.32031 2.28552 4.59141 2.28552 7.3125V7.97344C2.28552 9.62578 1.66766 11.2219 0.553376 12.4594L0.28909 12.7512C-0.0109096 13.0816 -0.0823382 13.5563 0.0998046 13.9605C0.281947 14.3648 0.692662 14.625 1.14266 14.625H14.8569C15.3069 14.625 15.7141 14.3648 15.8998 13.9605C16.0855 13.5563 16.0105 13.0816 15.7105 12.7512L15.4462 12.4594C14.3319 11.2219 13.7141 9.6293 13.7141 7.97344V7.3125C13.7141 4.59141 11.7498 2.32031 9.14266 1.8V1.125C9.14266 0.502734 8.63195 0 7.9998 0ZM9.61766 17.3426C10.0462 16.9207 10.2855 16.3477 10.2855 15.75H7.9998H5.71409C5.71409 16.3477 5.95338 16.9207 6.38195 17.3426C6.81052 17.7645 7.39266 18 7.9998 18C8.60695 18 9.18909 17.7645 9.61766 17.3426Z" fill="#4D4D4D"/>
</g>
<circle cx="13" cy="3" r="2" fill="#FF0000"/>
<defs>
<clipPath id="clip0_1679_11358">
<rect width="16" height="18" fill="white"/>
</clipPath>
</defs>
</svg>
