<svg width="24" height="24" viewBox="0 0 24 24" fill="none" xmlns="http://www.w3.org/2000/svg">
<path d="M20.9953 11.9828C20.9953 12.5452 20.5264 12.9857 19.995 12.9857H18.9948L19.0166 17.991C19.0166 18.0754 19.0104 18.1597 19.001 18.2441V18.7502C19.001 19.4407 18.4415 20 17.7507 20H17.2506C17.2162 20 17.1818 20 17.1474 19.9969C17.1036 20 17.0599 20 17.0161 20L16.0002 19.9969H15.25C14.5592 19.9969 13.9997 19.4376 13.9997 18.7471V17.9973V15.9977C13.9997 15.4446 13.5527 14.9979 12.9995 14.9979H10.9989C10.4457 14.9979 9.99868 15.4446 9.99868 15.9977V17.9973V18.7471C9.99868 19.4376 9.43917 19.9969 8.74836 19.9969H7.99817H7.00103C6.95415 19.9969 6.90726 19.9938 6.86037 19.9906C6.82286 19.9938 6.78535 19.9969 6.74784 19.9969H6.24771C5.55691 19.9969 4.99739 19.4376 4.99739 18.7471V15.2478C4.99739 15.2197 4.99739 15.1884 5.00052 15.1603V12.9826H4.00026C3.43761 12.9826 3 12.5452 3 11.9797C3 11.6985 3.09377 11.4485 3.31258 11.2298L11.324 4.24995C11.5428 4.03124 11.7929 4 12.0117 4C12.2305 4 12.4806 4.06249 12.6681 4.21871L20.6514 11.233C20.9015 11.4517 21.0265 11.7016 20.9953 11.9828Z" fill="white"/>
</svg>
