<svg width="24" height="24" viewBox="0 0 24 24" fill="none" xmlns="http://www.w3.org/2000/svg">
<g clip-path="url(#clip0_832_18455)">
<path d="M19.875 4.125C19.875 3.67149 19.6008 3.26016 19.1789 3.08438C18.757 2.9086 18.2754 3.00704 17.952 3.32696L16.4191 4.86329C14.7316 6.55079 12.443 7.5 10.0559 7.5H9.75H8.625H5.25C4.00898 7.5 3 8.50899 3 9.75V13.125C3 14.366 4.00898 15.375 5.25 15.375V19.875C5.25 20.4973 5.75273 21 6.375 21H8.625C9.24727 21 9.75 20.4973 9.75 19.875V15.375H10.0559C12.443 15.375 14.7316 16.3242 16.4191 18.0117L17.952 19.5445C18.2754 19.868 18.757 19.9629 19.1789 19.7871C19.6008 19.6113 19.875 19.2035 19.875 18.7465V13.5574C20.5289 13.2481 21 12.4148 21 11.434C21 10.4531 20.5289 9.61993 19.875 9.31055V4.125ZM17.625 6.82149V11.4375V16.0535C15.5578 14.1727 12.8613 13.125 10.0559 13.125H9.75V9.75H10.0559C12.8613 9.75 15.5578 8.70235 17.625 6.82149Z" fill="black"/>
</g>
<defs>
<clipPath id="clip0_832_18455">
<rect width="18" height="18" fill="white" transform="translate(3 3)"/>
</clipPath>
</defs>
</svg>
