<svg width="48" height="48" viewBox="0 0 48 48" fill="none" xmlns="http://www.w3.org/2000/svg">
<g id="pen-solid" clip-path="url(#clip0_1428_8104)">
<path id="Vector" d="M34.0035 1.80957L29.466 6.34707L41.6535 18.5346L46.191 13.9971C48.5347 11.6533 48.5347 7.85645 46.191 5.5127L42.4972 1.80957C40.1535 -0.53418 36.3566 -0.53418 34.0128 1.80957H34.0035ZM27.3472 8.46582L5.49408 30.3283C4.51908 31.3033 3.80658 32.5127 3.41283 33.8346L0.0940768 45.1127C-0.140298 45.9096 0.0753268 46.7627 0.656577 47.3439C1.23783 47.9252 2.09095 48.1408 2.87845 47.9158L14.1566 44.5971C15.4785 44.2033 16.6878 43.4908 17.6628 42.5158L39.5347 20.6533L27.3472 8.46582Z" fill="#E6E6E6"/>
</g>
<defs>
<clipPath id="clip0_1428_8104">
<rect width="48" height="48" fill="white"/>
</clipPath>
</defs>
</svg>
