<svg width="24" height="24" viewBox="0 0 24 24" fill="none" xmlns="http://www.w3.org/2000/svg">
<g clip-path="url(#clip0_910_8913)">
<path d="M12 21C14.3869 21 16.6761 20.0518 18.364 18.364C20.0518 16.6761 21 14.3869 21 12C21 9.61305 20.0518 7.32387 18.364 5.63604C16.6761 3.94821 14.3869 3 12 3C9.61305 3 7.32387 3.94821 5.63604 5.63604C3.94821 7.32387 3 9.61305 3 12C3 14.3869 3.94821 16.6761 5.63604 18.364C7.32387 20.0518 9.61305 21 12 21ZM12.3973 7.10273L16.3348 11.0402C16.4965 11.202 16.5422 11.4445 16.4578 11.652C16.3734 11.8594 16.166 12 15.9375 12H13.6875V15.375C13.6875 15.9973 13.1848 16.5 12.5625 16.5H11.4375C10.8152 16.5 10.3125 15.9973 10.3125 15.375V12H8.0625C7.83398 12 7.63008 11.8629 7.54219 11.652C7.4543 11.441 7.50352 11.1984 7.66523 11.0402L11.6027 7.10273C11.8207 6.88477 12.1793 6.88477 12.3973 7.10273Z" fill="#CCCCCC"/>
</g>
<defs>
<clipPath id="clip0_910_8913">
<rect width="18" height="18" fill="white" transform="translate(3 3)"/>
</clipPath>
</defs>
</svg>
