<svg width="24" height="24" viewBox="0 0 24 24" fill="none" xmlns="http://www.w3.org/2000/svg">
<g id="circle-up-solid 1" clip-path="url(#clip0_1503_6377)">
<path id="Vector" d="M12 24C15.1826 24 18.2348 22.7357 20.4853 20.4853C22.7357 18.2348 24 15.1826 24 12C24 8.8174 22.7357 5.76516 20.4853 3.51472C18.2348 1.26428 15.1826 0 12 0C8.8174 0 5.76516 1.26428 3.51472 3.51472C1.26428 5.76516 0 8.8174 0 12C0 15.1826 1.26428 18.2348 3.51472 20.4853C5.76516 22.7357 8.8174 24 12 24ZM12.5297 5.47031L17.7797 10.7203C17.9953 10.9359 18.0562 11.2594 17.9438 11.5359C17.8313 11.8125 17.5547 12 17.25 12H14.25V16.5C14.25 17.3297 13.5797 18 12.75 18H11.25C10.4203 18 9.75 17.3297 9.75 16.5V12H6.75C6.44531 12 6.17344 11.8172 6.05625 11.5359C5.93906 11.2547 6.00469 10.9313 6.22031 10.7203L11.4703 5.47031C11.7609 5.17969 12.2391 5.17969 12.5297 5.47031Z" fill="#2889E4"/>
</g>
<defs>
<clipPath id="clip0_1503_6377">
<rect width="24" height="24" fill="white"/>
</clipPath>
</defs>
</svg>
