<svg width="24" height="24" viewBox="0 0 24 24" fill="none" xmlns="http://www.w3.org/2000/svg">
<path fill-rule="evenodd" clip-rule="evenodd" d="M12 13.8465L6.00988 19.6635C5.55037 20.1097 4.80414 20.1097 4.34463 19.6635C3.88512 19.2173 3.88512 18.4926 4.34463 18.0464L10.5719 11.9991L4.34831 5.9518C3.8888 5.50557 3.8888 4.7809 4.34831 4.33467C4.80781 3.88844 5.55405 3.88844 6.01356 4.33467L12 10.1481L17.9864 4.33467C18.446 3.88844 19.1922 3.88844 19.6517 4.33467C20.1112 4.7809 20.1112 5.50557 19.6517 5.9518L13.4281 11.9991L19.6554 18.0464C20.1149 18.4926 20.1149 19.2173 19.6554 19.6635C19.1959 20.1097 18.4496 20.1097 17.9901 19.6635L12 13.8465Z" fill="#4D4D4D"/>
</svg>
