<svg width="18" height="20" viewBox="0 0 18 20" fill="none" xmlns="http://www.w3.org/2000/svg">
<g id="bars-solid">
<path id="Vector" d="M0 3.75C0 3.05859 0.574554 2.5 1.28571 2.5H16.7143C17.4254 2.5 18 3.05859 18 3.75C18 4.44141 17.4254 5 16.7143 5H1.28571C0.574554 5 0 4.44141 0 3.75ZM0 10C0 9.30859 0.574554 8.75 1.28571 8.75H16.7143C17.4254 8.75 18 9.30859 18 10C18 10.6914 17.4254 11.25 16.7143 11.25H1.28571C0.574554 11.25 0 10.6914 0 10ZM18 16.25C18 16.9414 17.4254 17.5 16.7143 17.5H1.28571C0.574554 17.5 0 16.9414 0 16.25C0 15.5586 0.574554 15 1.28571 15H16.7143C17.4254 15 18 15.5586 18 16.25Z" fill="white"/>
</g>
</svg>
