<svg width="120" height="56" viewBox="0 0 120 56" fill="none" xmlns="http://www.w3.org/2000/svg">
<g filter="url(#filter0_d_646_4039)">
<rect x="8" y="6" width="104" height="40" rx="8" fill="white" fill-opacity="0.9" shape-rendering="crispEdges"/>
<path d="M21 19.75C21 19.0586 21.5746 18.5 22.2857 18.5H37.7143C38.4254 18.5 39 19.0586 39 19.75C39 20.4414 38.4254 21 37.7143 21H22.2857C21.5746 21 21 20.4414 21 19.75ZM21 26C21 25.3086 21.5746 24.75 22.2857 24.75H37.7143C38.4254 24.75 39 25.3086 39 26C39 26.6914 38.4254 27.25 37.7143 27.25H22.2857C21.5746 27.25 21 26.6914 21 26ZM39 32.25C39 32.9414 38.4254 33.5 37.7143 33.5H22.2857C21.5746 33.5 21 32.9414 21 32.25C21 31.5586 21.5746 31 22.2857 31H37.7143C38.4254 31 39 31.5586 39 32.25Z" fill="#999999"/>
<path d="M58.1648 25.688V27.016H45.0448V25.688H50.8048V24.168H46.9648V18.984H56.2448V24.168H52.4208V25.688H58.1648ZM48.5648 22.872H54.6448V20.28H48.5648V22.872ZM46.7728 28.328H56.2288V33.288H54.5968V29.672H46.7728V28.328ZM72.4304 26.456V27.816H59.3104V26.456H65.0704V25.224H61.2624V21.464H68.8464V20.248H61.2144V18.968H70.3984V22.712H62.8464V23.928H70.7664V25.224H66.6704V26.456H72.4304ZM61.0544 28.92H70.5264V33.32H68.9104V30.232H61.0544V28.92ZM86.696 29.736V31.096H73.576V29.736H79.336V26.776H75.32V19.368H76.92V21.784H83.304V19.368H84.904V26.776H80.952V29.736H86.696ZM76.92 25.432H83.304V23.112H76.92V25.432ZM98.2736 18.632H99.9056V32.648H98.2736V18.632ZM88.3536 28.536C89.783 27.8107 90.871 27.144 91.6176 26.536C92.3643 25.928 92.887 25.2827 93.1856 24.6C93.495 23.9173 93.6496 23.0747 93.6496 22.072V21.128H88.7856V19.752H95.2976V22.056C95.2976 23.2613 95.111 24.2853 94.7376 25.128C94.375 25.96 93.767 26.7387 92.9136 27.464C92.071 28.1787 90.8656 28.952 89.2976 29.784L88.3536 28.536Z" fill="#808080"/>
</g>
<defs>
<filter id="filter0_d_646_4039" x="-2" y="-4" width="124" height="60" filterUnits="userSpaceOnUse" color-interpolation-filters="sRGB">
<feFlood flood-opacity="0" result="BackgroundImageFix"/>
<feColorMatrix in="SourceAlpha" type="matrix" values="0 0 0 0 0 0 0 0 0 0 0 0 0 0 0 0 0 0 127 0" result="hardAlpha"/>
<feOffset dy="2"/>
<feGaussianBlur stdDeviation="4"/>
<feComposite in2="hardAlpha" operator="out"/>
<feColorMatrix type="matrix" values="0 0 0 0 0 0 0 0 0 0 0 0 0 0 0 0 0 0 0.1 0"/>
<feBlend mode="normal" in2="BackgroundImageFix" result="effect1_dropShadow_646_4039"/>
<feBlend mode="normal" in="SourceGraphic" in2="effect1_dropShadow_646_4039" result="shape"/>
</filter>
</defs>
</svg>
