<svg width="30" height="37" viewBox="0 0 30 37" fill="none" xmlns="http://www.w3.org/2000/svg">
<g id="location-dot-solid">
<g id="Vector" filter="url(#filter0_d_1782_4292)">
<path d="M20.0002 13.6667C20.0002 16.4281 17.7616 18.6667 15.0002 18.6667C12.2387 18.6667 10.0002 16.4281 10.0002 13.6667C10.0002 10.9052 12.2387 8.66667 15.0002 8.66667C17.7616 8.66667 20.0002 10.9052 20.0002 13.6667Z" fill="white"/>
<path d="M16.4403 31.3259C19.5575 27.5544 26.6668 20.0467 26.6668 13.2792C26.6668 7.05214 21.4411 2 15.0002 2C8.55919 2 3.3335 7.05214 3.3335 13.2792C3.3335 20.0467 10.4429 27.5544 13.5601 31.3259C14.3075 32.2247 15.6929 32.2247 16.4403 31.3259ZM15.0002 9.51946C16.0316 9.51946 17.0207 9.91557 17.75 10.6207C18.4793 11.3257 18.8891 12.282 18.8891 13.2792C18.8891 14.2763 18.4793 15.2326 17.75 15.9377C17.0207 16.6428 16.0316 17.0389 15.0002 17.0389C13.9688 17.0389 12.9796 16.6428 12.2503 15.9377C11.521 15.2326 11.1113 14.2763 11.1113 13.2792C11.1113 12.282 11.521 11.3257 12.2503 10.6207C12.9796 9.91557 13.9688 9.51946 15.0002 9.51946Z" fill="#2889E4"/>
<path d="M15.0005 1.5C21.7014 1.50017 27.1665 6.76042 27.1665 13.2793C27.1665 16.8201 25.3154 20.4948 23.1362 23.707C20.9516 26.9274 18.3651 29.782 16.8257 31.6445L16.8247 31.6455C15.8774 32.7847 14.1226 32.7847 13.1753 31.6455L13.1743 31.6445C11.6348 29.7819 9.04843 26.9274 6.86377 23.707C4.68461 20.4948 2.83353 16.8201 2.8335 13.2793L2.8374 12.9746C3.00448 6.59714 8.40411 1.5 15.0005 1.5Z" stroke="white"/>
</g>
</g>
<defs>
<filter id="filter0_d_1782_4292" x="0.333496" y="1" width="29.3333" height="36" filterUnits="userSpaceOnUse" color-interpolation-filters="sRGB">
<feFlood flood-opacity="0" result="BackgroundImageFix"/>
<feColorMatrix in="SourceAlpha" type="matrix" values="0 0 0 0 0 0 0 0 0 0 0 0 0 0 0 0 0 0 127 0" result="hardAlpha"/>
<feOffset dy="2"/>
<feGaussianBlur stdDeviation="1"/>
<feComposite in2="hardAlpha" operator="out"/>
<feColorMatrix type="matrix" values="0 0 0 0 0 0 0 0 0 0 0 0 0 0 0 0 0 0 0.1 0"/>
<feBlend mode="normal" in2="BackgroundImageFix" result="effect1_dropShadow_1782_4292"/>
<feBlend mode="normal" in="SourceGraphic" in2="effect1_dropShadow_1782_4292" result="shape"/>
</filter>
</defs>
</svg>
