<svg width="32" height="32" viewBox="0 0 32 32" fill="none" xmlns="http://www.w3.org/2000/svg">
<g clip-path="url(#clip0_1336_11887)">
<path d="M21.0017 4.90479L18.733 7.17353L24.8267 13.2673L27.0955 10.9985C28.2674 9.82666 28.2674 7.92822 27.0955 6.75635L25.2486 4.90479C24.0767 3.73291 22.1783 3.73291 21.0064 4.90479H21.0017ZM17.6736 8.23291L6.74704 19.1642C6.25954 19.6517 5.90329 20.2563 5.70641 20.9173L4.04704 26.5563C3.92985 26.9548 4.03766 27.3813 4.32829 27.672C4.61891 27.9626 5.04548 28.0704 5.43923 27.9579L11.0783 26.2985C11.7392 26.1017 12.3439 25.7454 12.8314 25.2579L23.7674 14.3267L17.6736 8.23291Z" fill="#B3B3B3"/>
</g>
<defs>
<clipPath id="clip0_1336_11887">
<rect width="24" height="24" fill="white" transform="translate(4 4)"/>
</clipPath>
</defs>
</svg>
