<svg width="24" height="24" viewBox="0 0 24 24" fill="none" xmlns="http://www.w3.org/2000/svg">
<g clip-path="url(#clip0_1200_13129)">
<path d="M6.16674 4.125C6.16674 3.50273 6.6881 3 7.33341 3H16.6667C17.3121 3 17.8334 3.50273 17.8334 4.125C17.8334 4.74727 17.3121 5.25 16.6667 5.25H15.5912L16.0068 10.4602C17.3449 11.1598 18.4022 12.3305 18.9053 13.7895L18.9417 13.8949C19.0621 14.2395 19.0001 14.6156 18.7813 14.9074C18.5626 15.1992 18.2089 15.375 17.8334 15.375H6.16674C5.79122 15.375 5.44122 15.2027 5.21883 14.9074C4.99643 14.6121 4.9381 14.2359 5.05841 13.8949L5.09487 13.7895C5.59799 12.3305 6.65528 11.1598 7.99331 10.4602L8.40893 5.25H7.33341C6.6881 5.25 6.16674 4.74727 6.16674 4.125ZM10.8334 16.5H13.1667V19.875C13.1667 20.4973 12.6454 21 12.0001 21C11.3548 21 10.8334 20.4973 10.8334 19.875V16.5Z" fill="#CCCCCC"/>
</g>
<defs>
<clipPath id="clip0_1200_13129">
<rect width="14" height="18" fill="white" transform="translate(5 3)"/>
</clipPath>
</defs>
</svg>
