<svg width="24" height="24" viewBox="0 0 24 24" fill="none" xmlns="http://www.w3.org/2000/svg">
<path d="M14.018 3.2209C14.932 3.41387 15.5262 4.35273 15.3434 5.31758L15.2625 5.74063C15.0762 6.73145 14.7316 7.67402 14.25 8.53125H19.3125C20.2441 8.53125 21 9.3291 21 10.3125C21 10.999 20.6309 11.5965 20.0895 11.8934C20.4727 12.2199 20.7188 12.7209 20.7188 13.2813C20.7188 14.1496 20.1281 14.8732 19.3512 15.0291C19.5059 15.3 19.5938 15.6154 19.5938 15.9531C19.5938 16.7436 19.1051 17.4152 18.4301 17.6453C18.4547 17.7678 18.4688 17.8977 18.4688 18.0313C18.4688 19.0146 17.7129 19.8125 16.7812 19.8125H13.3535C12.6855 19.8125 12.0352 19.6047 11.4797 19.215L10.1262 18.2613C9.1875 17.6008 8.625 16.4875 8.625 15.2963V13.875V12.0938V11.1697C8.625 10.0861 9.09258 9.06563 9.89062 8.38652L10.1508 8.16758C11.0824 7.38086 11.7188 6.275 11.9508 5.04297L12.0316 4.61992C12.2145 3.65508 13.1039 3.02793 14.018 3.2209ZM4.125 9.125H6.375C6.99727 9.125 7.5 9.65566 7.5 10.3125V18.625C7.5 19.2818 6.99727 19.8125 6.375 19.8125H4.125C3.50273 19.8125 3 19.2818 3 18.625V10.3125C3 9.65566 3.50273 9.125 4.125 9.125Z" fill="#B3B3B3"/>
</svg>
