<svg width="20" height="20" viewBox="0 0 20 20" fill="none" xmlns="http://www.w3.org/2000/svg">
<g clip-path="url(#clip0_1334_11453)">
<path d="M11.6816 2.68385C12.4434 2.84466 12.9385 3.62705 12.7861 4.43109L12.7188 4.78363C12.5635 5.60931 12.2764 6.39479 11.875 7.10915H16.0938C16.8701 7.10915 17.5 7.77402 17.5 8.59352C17.5 9.16562 17.1924 9.66351 16.7412 9.9109C17.0605 10.183 17.2656 10.6005 17.2656 11.0675C17.2656 11.7911 16.7734 12.3941 16.126 12.524C16.2549 12.7498 16.3281 13.0126 16.3281 13.294C16.3281 13.9527 15.9209 14.5125 15.3584 14.7042C15.3789 14.8062 15.3906 14.9145 15.3906 15.0258C15.3906 15.8453 14.7607 16.5102 13.9844 16.5102H11.1279C10.5713 16.5102 10.0293 16.337 9.56641 16.0123L8.43848 15.2175C7.65625 14.6671 7.1875 13.7394 7.1875 12.7467V11.5623V10.0779V9.30788C7.1875 8.40488 7.57715 7.55446 8.24219 6.98854L8.45898 6.80609C9.23535 6.15049 9.76562 5.22894 9.95898 4.20225L10.0264 3.84971C10.1787 3.04567 10.9199 2.52305 11.6816 2.68385ZM3.4375 7.60394H5.3125C5.83105 7.60394 6.25 8.04616 6.25 8.59352V15.5206C6.25 16.068 5.83105 16.5102 5.3125 16.5102H3.4375C2.91895 16.5102 2.5 16.068 2.5 15.5206V8.59352C2.5 8.04616 2.91895 7.60394 3.4375 7.60394Z" fill="#2889E4"/>
</g>
<defs>
<clipPath id="clip0_1334_11453">
<rect width="15" height="15.8333" fill="white" transform="translate(2.5 1.6665)"/>
</clipPath>
</defs>
</svg>
