<svg width="20" height="20" viewBox="0 0 20 20" fill="none" xmlns="http://www.w3.org/2000/svg">
<path fill-rule="evenodd" clip-rule="evenodd" d="M10.0002 11.5386L5.0084 16.3862C4.62547 16.758 4.00361 16.758 3.62069 16.3862C3.23777 16.0143 3.23777 15.4104 3.62069 15.0386L8.81004 9.99915L3.62375 4.95975C3.24083 4.5879 3.24083 3.984 3.62375 3.61214C4.00667 3.24029 4.62854 3.24029 5.01146 3.61214L10.0002 8.45669L14.9889 3.61214C15.3718 3.24029 15.9937 3.24029 16.3766 3.61214C16.7595 3.984 16.7595 4.5879 16.3766 4.95975L11.1903 9.99915L16.3796 15.0386C16.7626 15.4104 16.7626 16.0143 16.3796 16.3862C15.9967 16.758 15.3749 16.758 14.9919 16.3862L10.0002 11.5386Z" fill="#999999"/>
</svg>
