<svg width="22" height="16" viewBox="0 0 22 16" fill="none" xmlns="http://www.w3.org/2000/svg">
<g id="comments-solid 1" clip-path="url(#clip0_1503_8213)">
<path id="Vector" d="M7.49323 11C11.0904 11 14.0052 8.5375 14.0052 5.5C14.0052 2.4625 11.0904 0 7.49323 0C3.89601 0 0.9813 2.4625 0.9813 5.5C0.9813 6.70625 1.44152 7.82187 2.22107 8.73125C2.11149 9.025 1.9487 9.28438 1.77651 9.50313C1.62623 9.69688 1.47282 9.84688 1.36012 9.95C1.30377 10 1.2568 10.0406 1.2255 10.0656C1.20984 10.0781 1.19732 10.0875 1.19106 10.0906L1.1848 10.0969C1.01261 10.225 0.937469 10.45 1.00635 10.6531C1.07522 10.8562 1.2662 11 1.48222 11C2.16472 11 2.85348 10.825 3.4264 10.6094C3.71443 10.5 3.98367 10.3781 4.21535 10.2531C5.17961 10.7281 6.29729 11 7.49323 11ZM15.007 5.5C15.007 9.00937 11.9044 11.6531 8.22895 11.9688C8.98972 14.2937 11.5131 16 14.5061 16C15.702 16 16.8197 15.7281 17.7839 15.2531C18.0188 15.3781 18.2849 15.5 18.5729 15.6094C19.1458 15.825 19.8346 16 20.5171 16C20.7331 16 20.9272 15.8594 20.9929 15.6531C21.0587 15.4469 20.9867 15.2219 20.8114 15.0938L20.8051 15.0875C20.7988 15.0812 20.7863 15.075 20.7707 15.0625C20.7394 15.0375 20.6924 15 20.636 14.9469C20.5233 14.8438 20.3699 14.6938 20.2197 14.5C20.0475 14.2812 19.8847 14.0187 19.7751 13.7281C20.5546 12.8219 21.0149 11.7063 21.0149 10.4969C21.0149 7.59687 18.3569 5.21875 14.9851 5.0125C14.9976 5.17188 15.0039 5.33437 15.0039 5.49687L15.007 5.5Z" fill="#2889E4"/>
</g>
<defs>
<clipPath id="clip0_1503_8213">
<rect width="20.0367" height="16" fill="white" transform="translate(0.981445)"/>
</clipPath>
</defs>
</svg>
