<svg width="21" height="17" viewBox="0 0 21 17" fill="none" xmlns="http://www.w3.org/2000/svg">
<g id="comments-solid 1" clip-path="url(#clip0_1503_7061)">
<path id="Vector" d="M6.61871 11.5C10.2159 11.5 13.1306 9.0375 13.1306 6C13.1306 2.9625 10.2159 0.5 6.61871 0.5C3.0215 0.5 0.106788 2.9625 0.106788 6C0.106788 7.20625 0.567006 8.32187 1.34656 9.23125C1.23698 9.525 1.07418 9.78438 0.901994 10.0031C0.751719 10.1969 0.598313 10.3469 0.485607 10.45C0.429254 10.5 0.382293 10.5406 0.350985 10.5656C0.335332 10.5781 0.322809 10.5875 0.316547 10.5906L0.310286 10.5969C0.138095 10.725 0.0629577 10.95 0.131834 11.1531C0.20071 11.3562 0.391685 11.5 0.607705 11.5C1.29021 11.5 1.97897 11.325 2.55189 11.1094C2.83992 11 3.10916 10.8781 3.34084 10.7531C4.3051 11.2281 5.42277 11.5 6.61871 11.5ZM14.1325 6C14.1325 9.50937 11.0299 12.1531 7.35444 12.4688C8.1152 14.7937 10.6386 16.5 13.6316 16.5C14.8275 16.5 15.9452 16.2281 16.9094 15.7531C17.1442 15.8781 17.4104 16 17.6984 16.1094C18.2713 16.325 18.9601 16.5 19.6426 16.5C19.8586 16.5 20.0527 16.3594 20.1184 16.1531C20.1842 15.9469 20.1122 15.7219 19.9369 15.5938L19.9306 15.5875C19.9243 15.5812 19.9118 15.575 19.8962 15.5625C19.8648 15.5375 19.8179 15.5 19.7615 15.4469C19.6488 15.3438 19.4954 15.1938 19.3451 15C19.173 14.7812 19.0102 14.5187 18.9006 14.2281C19.6801 13.3219 20.1404 12.2063 20.1404 10.9969C20.1404 8.09687 17.4824 5.71875 14.1106 5.5125C14.1231 5.67188 14.1293 5.83437 14.1293 5.99687L14.1325 6Z" fill="#B3B3B3"/>
</g>
<defs>
<clipPath id="clip0_1503_7061">
<rect width="20.0367" height="16" fill="white" transform="translate(0.106445 0.5)"/>
</clipPath>
</defs>
</svg>
