<svg width="20" height="18" viewBox="0 0 20 18" fill="none" xmlns="http://www.w3.org/2000/svg">
<g id="house-solid">
<path id="Vector" d="M18.9953 8.98243C18.9953 9.55771 18.5264 10.0084 17.995 10.0084H16.9948L17.0166 15.1284C17.0166 15.2147 17.0104 15.301 17.001 15.3873V15.905C17.001 16.6113 16.4415 17.1834 15.7507 17.1834H15.2506C15.2162 17.1834 15.1818 17.1834 15.1474 17.1802C15.1036 17.1834 15.0599 17.1834 15.0161 17.1834L14.0002 17.1802H13.25C12.5592 17.1802 11.9997 16.6081 11.9997 15.9018V15.1348V13.0893C11.9997 12.5236 11.5527 12.0666 10.9995 12.0666H8.99894C8.44568 12.0666 7.99868 12.5236 7.99868 13.0893V15.1348V15.9018C7.99868 16.6081 7.43917 17.1802 6.74836 17.1802H5.99817H5.00103C4.95415 17.1802 4.90726 17.177 4.86037 17.1738C4.82286 17.177 4.78535 17.1802 4.74784 17.1802H4.24771C3.55691 17.1802 2.99739 16.6081 2.99739 15.9018V12.3223C2.99739 12.2935 2.99739 12.2615 3.00052 12.2328V10.0052H2.00026C1.43761 10.0052 1 9.55771 1 8.97923C1 8.69159 1.09377 8.43591 1.31258 8.21219L9.32403 1.07227C9.54283 0.84855 9.7929 0.816589 10.0117 0.816589C10.2305 0.816589 10.4806 0.88051 10.6681 1.04031L18.6514 8.21538C18.9015 8.43911 19.0265 8.69479 18.9953 8.98243Z" fill="#B3B3B3"/>
</g>
</svg>
