<svg width="16" height="18" viewBox="0 0 16 18" fill="none" xmlns="http://www.w3.org/2000/svg">
<g id="user-solid">
<path id="Vector" d="M7.99978 9C9.07749 9 10.1111 8.57857 10.8731 7.82843C11.6352 7.07828 12.0633 6.06087 12.0633 5C12.0633 3.93913 11.6352 2.92172 10.8731 2.17157C10.1111 1.42143 9.07749 1 7.99978 1C6.92208 1 5.88851 1.42143 5.12646 2.17157C4.36441 2.92172 3.93629 3.93913 3.93629 5C3.93629 6.06087 4.36441 7.07828 5.12646 7.82843C5.88851 8.57857 6.92208 9 7.99978 9ZM6.54899 10.5C3.42201 10.5 0.888672 12.9937 0.888672 16.0719C0.888672 16.5844 1.31089 17 1.83153 17H14.168C14.6887 17 15.1109 16.5844 15.1109 16.0719C15.1109 12.9937 12.5776 10.5 9.45058 10.5H6.54899Z" fill="#2889E4"/>
</g>
</svg>
