<svg width="20" height="21" viewBox="0 0 20 21" fill="none" xmlns="http://www.w3.org/2000/svg">
<g clip-path="url(#clip0_1332_11991)">
<path d="M9.52075 3H13.2385C13.619 3 13.9845 3.14941 14.2541 3.41309L16.2882 5.40234C16.5578 5.66602 16.7106 6.02344 16.7106 6.39551V12.8438C16.7106 13.6201 16.0665 14.25 15.2726 14.25H9.52075C8.72687 14.25 8.08278 13.6201 8.08278 12.8438V4.40625C8.08278 3.62988 8.72687 3 9.52075 3ZM4.72752 6.75H7.12414V8.625H5.20684V16.125H10.9587V15.1875H12.876V16.5938C12.876 17.3701 12.2319 18 11.438 18H4.72752C3.93364 18 3.28955 17.3701 3.28955 16.5938V8.15625C3.28955 7.37988 3.93364 6.75 4.72752 6.75Z" fill="#CCCCCC"/>
</g>
<defs>
<clipPath id="clip0_1332_11991">
<rect width="13.4211" height="15" fill="white" transform="translate(3.28955 3)"/>
</clipPath>
</defs>
</svg>
