<svg width="24" height="24" viewBox="0 0 24 24" fill="none" xmlns="http://www.w3.org/2000/svg">
<g clip-path="url(#clip0_1031_9547)">
<path d="M6.21419 4.125C6.21419 3.50273 5.69709 3 5.05705 3C4.417 3 3.8999 3.50273 3.8999 4.125V5.25V15.9375V19.875C3.8999 20.4973 4.417 21 5.05705 21C5.69709 21 6.21419 20.4973 6.21419 19.875V15.375L8.53932 14.809C10.0255 14.4469 11.5985 14.6156 12.969 15.2801C14.5673 16.057 16.4224 16.152 18.093 15.5402L19.3478 15.0832C19.7998 14.918 20.0999 14.4996 20.0999 14.0285V5.32031C20.0999 4.51172 19.2248 3.98437 18.4799 4.34648L18.1328 4.51523C16.4585 5.33086 14.4878 5.33086 12.8135 4.51523C11.5443 3.89648 10.087 3.7418 8.70928 4.07578L6.21419 4.6875V4.125Z" fill="#CCCCCC"/>
</g>
<defs>
<clipPath id="clip0_1031_9547">
<rect width="16.2" height="18" fill="white" transform="translate(3.8999 3)"/>
</clipPath>
</defs>
</svg>
