<svg width="18" height="18" viewBox="0 0 18 18" fill="none" xmlns="http://www.w3.org/2000/svg">
<g clip-path="url(#clip0_1165_6844)">
<path d="M3.21468 1.125C3.21468 0.502734 2.69758 0 2.05753 0C1.41749 0 0.900391 0.502734 0.900391 1.125V2.25V12.9375V16.875C0.900391 17.4973 1.41749 18 2.05753 18C2.69758 18 3.21468 17.4973 3.21468 16.875V12.375L5.53981 11.809C7.02602 11.4469 8.59901 11.6156 9.9695 12.2801C11.5678 13.057 13.4228 13.152 15.0935 12.5402L16.3482 12.0832C16.8003 11.918 17.1004 11.4996 17.1004 11.0285V2.32031C17.1004 1.51172 16.2253 0.984375 15.4804 1.34648L15.1332 1.51523C13.459 2.33086 11.4882 2.33086 9.81401 1.51523C8.54476 0.896484 7.08749 0.741797 5.70977 1.07578L3.21468 1.6875V1.125Z" fill="#CCCCCC"/>
</g>
<defs>
<clipPath id="clip0_1165_6844">
<rect width="16.2" height="18" fill="white" transform="translate(0.900391)"/>
</clipPath>
</defs>
</svg>
