<svg width="24" height="24" viewBox="0 0 24 24" fill="none" xmlns="http://www.w3.org/2000/svg">
<circle cx="12" cy="10" r="3" fill="white"/>
<path d="M12.8641 20.3568C14.7344 18.1567 19 13.7772 19 9.82953C19 6.19708 15.8646 3.25 12 3.25C8.13542 3.25 5 6.19708 5 9.82953C5 13.7772 9.26562 18.1567 11.1359 20.3568C11.5844 20.8811 12.4156 20.8811 12.8641 20.3568ZM12 7.63635C12.6188 7.63635 13.2123 7.86742 13.6499 8.27872C14.0875 8.69002 14.3333 9.24786 14.3333 9.82953C14.3333 10.4112 14.0875 10.969 13.6499 11.3803C13.2123 11.7916 12.6188 12.0227 12 12.0227C11.3812 12.0227 10.7877 11.7916 10.3501 11.3803C9.9125 10.969 9.66667 10.4112 9.66667 9.82953C9.66667 9.24786 9.9125 8.69002 10.3501 8.27872C10.7877 7.86742 11.3812 7.63635 12 7.63635Z" fill="#CCCCCC"/>
</svg>
