<svg width="24" height="24" viewBox="0 0 24 24" fill="none" xmlns="http://www.w3.org/2000/svg">
<g clip-path="url(#clip0_884_29269)">
<path d="M8.79727 3.86442C8.52656 3.21051 7.81289 2.86246 7.13086 3.04879L4.03711 3.89254C3.42539 4.06129 3 4.61676 3 5.24957C3 13.9472 10.0523 20.9996 18.75 20.9996C19.3828 20.9996 19.9383 20.5742 20.107 19.9625L20.9508 16.8687C21.1371 16.1867 20.7891 15.473 20.1352 15.2023L16.7602 13.7961C16.1871 13.557 15.5227 13.7222 15.1324 14.2039L13.7121 15.9371C11.2371 14.7664 9.2332 12.7625 8.0625 10.2875L9.7957 8.87067C10.2773 8.47692 10.4426 7.81598 10.2035 7.24293L8.79727 3.86793V3.86442Z" fill="#CCCCCC"/>
</g>
<defs>
<clipPath id="clip0_884_29269">
<rect width="18" height="18" fill="white" transform="translate(3 3)"/>
</clipPath>
</defs>
</svg>
