<svg width="25" height="24" viewBox="0 0 25 24" fill="none" xmlns="http://www.w3.org/2000/svg">
<g clip-path="url(#clip0_1332_11889)">
<path d="M14.7422 4.22366C14.293 4.40295 14 4.80725 14 5.25022V7.50022H9.625C5.82812 7.50022 2.75 10.2705 2.75 13.6877C2.75 17.6709 5.93359 19.4498 6.66406 19.8084C6.76172 19.8576 6.87109 19.8752 6.98047 19.8752C7.40625 19.8752 7.75 19.5623 7.75 19.1826C7.75 18.919 7.58203 18.6764 7.36719 18.4971C7 18.1842 6.5 17.569 6.5 16.5002C6.5 14.6369 8.17969 13.1252 10.25 13.1252H14V15.3752C14 15.8182 14.2891 16.2225 14.7422 16.4018C15.1953 16.5811 15.7188 16.5073 16.0859 16.2119L22.3359 11.1494C22.5977 10.935 22.75 10.6326 22.75 10.3127C22.75 9.9928 22.6016 9.69045 22.3359 9.476L16.0859 4.4135C15.7188 4.11467 15.1914 4.04084 14.7422 4.22366Z" fill="#CCCCCC"/>
</g>
<defs>
<clipPath id="clip0_1332_11889">
<rect width="20" height="18" fill="white" transform="translate(2.75 3)"/>
</clipPath>
</defs>
</svg>
