<svg width="25" height="24" viewBox="0 0 25 24" fill="none" xmlns="http://www.w3.org/2000/svg">
<g clip-path="url(#clip0_1332_11886)">
<path d="M16.75 10.875C18.6133 10.875 20.125 9.36328 20.125 7.5C20.125 5.63672 18.6133 4.125 16.75 4.125C14.8867 4.125 13.375 5.63672 13.375 7.5C13.375 7.64062 13.382 7.78125 13.3996 7.91836L10.0914 9.5707C9.48672 8.98359 8.66055 8.625 7.75 8.625C5.88672 8.625 4.375 10.1367 4.375 12C4.375 13.8633 5.88672 15.375 7.75 15.375C8.66055 15.375 9.48672 15.0164 10.0914 14.4293L13.3996 16.0816C13.382 16.2188 13.375 16.3559 13.375 16.5C13.375 18.3633 14.8867 19.875 16.75 19.875C18.6133 19.875 20.125 18.3633 20.125 16.5C20.125 14.6367 18.6133 13.125 16.75 13.125C15.8395 13.125 15.0133 13.4836 14.4086 14.0707L11.1004 12.4184C11.118 12.2812 11.125 12.1441 11.125 12C11.125 11.8559 11.118 11.7188 11.1004 11.5816L14.4086 9.9293C15.0133 10.5164 15.8395 10.875 16.75 10.875Z" fill="#CCCCCC"/>
</g>
<defs>
<clipPath id="clip0_1332_11886">
<rect width="15.75" height="18" fill="white" transform="translate(4.375 3)"/>
</clipPath>
</defs>
</svg>
