<svg width="67" height="24" viewBox="0 0 67 24" fill="none" xmlns="http://www.w3.org/2000/svg">
<path d="M54.0739 18.404C50.5281 18.404 48.2126 15.992 48.2126 12.8322C48.2126 9.64824 50.5281 7.21206 54.0739 7.21206C57.6196 7.21206 59.9352 9.64824 59.9352 12.8322C59.9352 15.992 57.6196 18.404 54.0739 18.404ZM46.6206 4.14874C46.6206 3.1598 47.4166 2.65327 48.2608 2.79799C49.4668 3.01507 51.0588 3.1598 52.4578 3.23216V1.47136C52.4578 0.434171 53.302 0 54.0739 0C54.7492 0 55.69 0.434171 55.69 1.47136V3.20804C57.0407 3.13568 58.5603 3.01507 59.694 2.79799C60.5382 2.65327 61.3342 3.1598 61.3342 4.14874C61.3342 4.84824 60.8759 5.35477 60.1523 5.4995C58.5844 5.83719 55.9553 6.00603 53.9533 6.00603C51.9513 6.00603 49.3704 5.83719 47.8025 5.4995C47.0789 5.35477 46.6206 4.84824 46.6206 4.14874ZM51.3482 12.8322C51.3482 14.5688 52.3372 15.7025 54.0739 15.7025C55.8106 15.7025 56.7995 14.5688 56.7995 12.8322C56.7995 11.0231 55.7864 9.86533 54.0739 9.86533C52.3613 9.86533 51.3482 11.0231 51.3482 12.8322ZM62.8779 1.47136C62.8779 0.434171 63.8186 0 64.494 0C65.1694 0 66.1101 0.434171 66.1101 1.47136V22.5286C66.1101 23.5658 65.1694 24 64.494 24C63.8186 24 62.8779 23.5658 62.8779 22.5286V1.47136Z" fill="#58999E"/>
<path d="M39.0959 1.47136C39.0959 0.434171 40.0366 0 40.712 0C41.3873 0 42.328 0.434171 42.328 1.47136V7.67035H44.33C45.1984 7.67035 45.6808 8.24925 45.6808 9.06935C45.6808 9.88945 45.1984 10.4683 44.33 10.4683H42.328V22.5286C42.328 23.5658 41.3873 24 40.712 24C40.0366 24 39.0959 23.5658 39.0959 22.5286V1.47136ZM23.5381 16.3055C23.5381 15.8231 23.7793 15.4372 24.1652 15.1236C26.1672 13.5075 27.6386 11.192 28.314 8.97286C28.6999 7.71859 28.8205 6.4402 28.8205 4.65528V2.82211C28.8205 1.78492 29.7612 1.35075 30.4125 1.35075C31.112 1.35075 32.0044 1.78492 32.0044 2.82211V4.65528C32.0044 6.39196 32.1491 7.74271 32.4627 8.92462C33.1381 11.4332 34.73 13.4593 36.6597 14.8583C37.0939 15.196 37.3351 15.5819 37.3351 16.0402C37.3351 16.8603 36.6597 17.5357 35.8396 17.5357C35.3089 17.5357 34.9712 17.391 34.6577 17.1739C32.7763 15.8472 31.329 14.0141 30.3883 11.9879C29.3994 14.0382 28.0004 15.9678 26.2878 17.3427C25.9501 17.608 25.516 17.7769 25.13 17.7769C24.3099 17.7769 23.5381 17.1739 23.5381 16.3055Z" fill="#58999E"/>
<path d="M7.01628 3.90754V8.03217C7.01628 8.15277 7.08864 8.20101 7.20925 8.22513C7.78814 8.39397 9.69367 8.6593 11.6957 8.6593C13.6977 8.6593 15.6032 8.39397 16.1821 8.22513C16.3027 8.20101 16.3751 8.10453 16.3751 7.98392V3.90754H7.01628ZM0.889648 14.207C0.889648 13.5075 1.4203 12.808 2.26452 12.808C2.38513 12.808 2.55397 12.8322 2.69869 12.8804C5.47256 13.604 8.48764 13.9417 11.6957 13.9417C14.9278 13.9417 17.9188 13.604 20.6927 12.8804C20.8374 12.8322 21.0062 12.8322 21.1268 12.8322C21.9711 12.8322 22.5017 13.5075 22.5017 14.207C22.5017 14.7859 22.164 15.3648 21.3439 15.5819C18.9319 16.2573 16.2062 16.6191 13.3118 16.7156V22.5286C13.3118 23.4935 12.5158 23.9759 11.6957 23.9759C10.8997 23.9759 10.0796 23.4935 10.0796 22.5286V16.7156C7.18513 16.6191 4.4595 16.2573 2.04744 15.5819C1.22734 15.3648 0.889648 14.7859 0.889648 14.207ZM3.83236 2.67739C3.83236 1.73669 4.60422 1.15779 5.64141 1.15779H17.7499C18.7871 1.15779 19.559 1.73669 19.559 2.67739V8.49046C19.559 9.62413 19.2695 10.1307 18.4012 10.5407C17.4846 10.9749 14.7831 11.409 11.6957 11.409C8.60824 11.409 5.90673 10.9749 5.03839 10.5648C4.12181 10.1307 3.83236 9.62413 3.83236 8.49046V2.67739Z" fill="#58999E"/>
</svg>
