<svg width="67" height="24" viewBox="0 0 67 24" fill="none" xmlns="http://www.w3.org/2000/svg">
<g id="&#235;&#172;&#180;&#236;&#130;&#172;&#237;&#158;&#136;">
<path id="Vector" d="M54.0734 18.404C50.5277 18.404 48.2121 15.992 48.2121 12.8322C48.2121 9.64824 50.5277 7.21206 54.0734 7.21206C57.6191 7.21206 59.9347 9.64824 59.9347 12.8322C59.9347 15.992 57.6191 18.404 54.0734 18.404ZM46.6201 4.14874C46.6201 3.1598 47.4161 2.65327 48.2603 2.79799C49.4663 3.01507 51.0583 3.1598 52.4573 3.23216V1.47136C52.4573 0.434171 53.3015 0 54.0734 0C54.7488 0 55.6895 0.434171 55.6895 1.47136V3.20804C57.0402 3.13568 58.5598 3.01507 59.6935 2.79799C60.5377 2.65327 61.3337 3.1598 61.3337 4.14874C61.3337 4.84824 60.8754 5.35477 60.1518 5.4995C58.5839 5.83719 55.9548 6.00603 53.9528 6.00603C51.9508 6.00603 49.3699 5.83719 47.802 5.4995C47.0784 5.35477 46.6201 4.84824 46.6201 4.14874ZM51.3478 12.8322C51.3478 14.5688 52.3367 15.7025 54.0734 15.7025C55.8101 15.7025 56.799 14.5688 56.799 12.8322C56.799 11.0231 55.7859 9.86533 54.0734 9.86533C52.3608 9.86533 51.3478 11.0231 51.3478 12.8322ZM62.8774 1.47136C62.8774 0.434171 63.8181 0 64.4935 0C65.1689 0 66.1096 0.434171 66.1096 1.47136V22.5286C66.1096 23.5658 65.1689 24 64.4935 24C63.8181 24 62.8774 23.5658 62.8774 22.5286V1.47136Z" fill="#2889E4"/>
<path id="Vector_2" d="M39.0959 1.47136C39.0959 0.434171 40.0366 0 40.712 0C41.3873 0 42.328 0.434171 42.328 1.47136V7.67035H44.33C45.1984 7.67035 45.6808 8.24925 45.6808 9.06935C45.6808 9.88945 45.1984 10.4683 44.33 10.4683H42.328V22.5286C42.328 23.5658 41.3873 24 40.712 24C40.0366 24 39.0959 23.5658 39.0959 22.5286V1.47136ZM23.5381 16.3055C23.5381 15.8231 23.7793 15.4372 24.1652 15.1236C26.1672 13.5075 27.6386 11.192 28.314 8.97286C28.6999 7.71859 28.8205 6.4402 28.8205 4.65528V2.82211C28.8205 1.78492 29.7612 1.35075 30.4125 1.35075C31.112 1.35075 32.0044 1.78492 32.0044 2.82211V4.65528C32.0044 6.39196 32.1491 7.74271 32.4627 8.92462C33.1381 11.4332 34.73 13.4593 36.6597 14.8583C37.0939 15.196 37.3351 15.5819 37.3351 16.0402C37.3351 16.8603 36.6597 17.5357 35.8396 17.5357C35.3089 17.5357 34.9712 17.391 34.6577 17.1739C32.7763 15.8472 31.329 14.0141 30.3883 11.9879C29.3994 14.0382 28.0004 15.9678 26.2878 17.3427C25.9501 17.608 25.516 17.7769 25.13 17.7769C24.3099 17.7769 23.5381 17.1739 23.5381 16.3055Z" fill="#2889E4"/>
<path id="Vector_3" d="M7.01628 3.90746V8.03209C7.01628 8.15269 7.08864 8.20093 7.20925 8.22505C7.78814 8.39389 9.69367 8.65922 11.6957 8.65922C13.6977 8.65922 15.6032 8.39389 16.1821 8.22505C16.3027 8.20093 16.3751 8.10445 16.3751 7.98384V3.90746H7.01628ZM0.889648 14.207C0.889648 13.5075 1.4203 12.808 2.26452 12.808C2.38513 12.808 2.55397 12.8321 2.69869 12.8803C5.47256 13.6039 8.48764 13.9416 11.6957 13.9416C14.9278 13.9416 17.9188 13.6039 20.6927 12.8803C20.8374 12.8321 21.0062 12.8321 21.1268 12.8321C21.9711 12.8321 22.5017 13.5075 22.5017 14.207C22.5017 14.7859 22.164 15.3647 21.3439 15.5818C18.9319 16.2572 16.2062 16.619 13.3118 16.7155V22.5286C13.3118 23.4934 12.5158 23.9758 11.6957 23.9758C10.8997 23.9758 10.0796 23.4934 10.0796 22.5286V16.7155C7.18513 16.619 4.4595 16.2572 2.04744 15.5818C1.22734 15.3647 0.889648 14.7859 0.889648 14.207ZM3.83236 2.67731C3.83236 1.73661 4.60422 1.15771 5.64141 1.15771H17.7499C18.7871 1.15771 19.559 1.73661 19.559 2.67731V8.49038C19.559 9.62405 19.2695 10.1306 18.4012 10.5406C17.4846 10.9748 14.7831 11.409 11.6957 11.409C8.60824 11.409 5.90673 10.9748 5.03839 10.5647C4.12181 10.1306 3.83236 9.62405 3.83236 8.49038V2.67731Z" fill="#2889E4"/>
</g>
</svg>
