<svg width="135" height="28" viewBox="0 0 135 28" fill="none" xmlns="http://www.w3.org/2000/svg">
<path fill-rule="evenodd" clip-rule="evenodd" d="M45.8401 26L31.4246 2L17.0092 26H45.8401ZM36.2297 25.9984L31.4245 18.3184L26.6194 25.9984H36.2297Z" fill="#2889E4"/>
<path fill-rule="evenodd" clip-rule="evenodd" d="M20.5938 12.1089L12.1494 26H0.178101L14.5431 2L20.5938 12.1089Z" fill="#2889E4"/>
<path d="M128.571 28V0.470852H134.822V28H128.571ZM108.881 8.03587V2.69955H114.819V0H121.07V2.69955H126.977V8.03587H124.414C125.633 9.88789 126.008 12.7444 126.008 16.6996C126.008 23.2915 123.883 27.3408 117.945 27.3408C112.006 27.3408 109.881 23.2915 109.881 16.6996C109.881 12.7444 110.256 9.88789 111.475 8.03587H108.881ZM116.1 15.5067C116.1 20.6547 116.882 21.8789 117.945 21.8789C119.007 21.8789 119.789 20.6547 119.789 15.5067C119.789 10.3587 119.007 9.16592 117.945 9.16592C116.882 9.16592 116.1 10.3587 116.1 15.5067Z" fill="#2889E4"/>
<path d="M98.5818 27.9998V0.470703H104.833V10.0761H107.646V15.3496H104.833V27.9998H98.5818ZM78.4852 27.1523V21.0626C81.6732 20.3093 84.236 17.2016 84.236 11.1433V0.847385H90.4869V10.39C90.4869 11.112 90.4557 11.8339 90.3931 12.5559C91.4558 17.0447 94.925 20.8429 97.988 21.9416L94.9875 27.0268C92.0496 25.8025 89.9243 23.668 88.2053 20.4662C86.2051 24.2958 82.8921 26.8384 78.4852 27.1523Z" fill="#2889E4"/>
<path d="M49.8401 18.2053H77.0314V23.5416H66.5612V27.999H60.3103V23.5416H49.8401V18.2053ZM51.0903 14.6268V1.09766H75.7812V14.6268C73.2184 15.5371 68.5615 16.0708 63.3107 16.0708C58.06 16.0708 53.6219 15.5057 51.0903 14.6268ZM57.3411 10.4205C57.81 10.6403 60.5291 10.8914 63.3107 10.8914C66.1549 10.8914 69.0303 10.6403 69.5303 10.4205V6.43398H57.3411V10.4205Z" fill="#2889E4"/>
</svg>
