<svg width="24" height="24" viewBox="0 0 24 24" fill="none" xmlns="http://www.w3.org/2000/svg">
<path d="M11.9998 12C13.0775 12 14.1111 11.5786 14.8731 10.8284C15.6352 10.0783 16.0633 9.06087 16.0633 8C16.0633 6.93913 15.6352 5.92172 14.8731 5.17157C14.1111 4.42143 13.0775 4 11.9998 4C10.9221 4 9.88851 4.42143 9.12646 5.17157C8.36441 5.92172 7.93629 6.93913 7.93629 8C7.93629 9.06087 8.36441 10.0783 9.12646 10.8284C9.88851 11.5786 10.9221 12 11.9998 12ZM10.549 13.5C7.42201 13.5 4.88867 15.9937 4.88867 19.0719C4.88867 19.5844 5.31089 20 5.83153 20H18.168C18.6887 20 19.1109 19.5844 19.1109 19.0719C19.1109 15.9937 16.5776 13.5 13.4506 13.5H10.549Z" fill="white"/>
</svg>
